<svg width="370" height="378" viewBox="0 0 370 378" fill="none" xmlns="http://www.w3.org/2000/svg">
<path d="M117.854 249.774C131.563 244.878 126.014 227.684 121.526 219.698C158.888 221.797 231.897 227.357 225.042 232.813C216.474 239.632 217.174 253.621 230.113 257.818C246.025 264.637 236.933 275.991 236.933 282.298C236.933 289.292 231.954 295.433 251.621 304.33C270.655 312.941 267.008 337.553 264.56 342.974C255.868 362.222 237.632 371.825 177.481 376.197C117.33 380.568 84.1067 352.241 75.0141 337.553C65.9214 322.865 75.0141 305.029 87.7787 298.21C100.543 291.39 99.4941 286.669 98.9696 273.03C98.445 259.391 100.718 255.894 117.854 249.774Z" fill="#F0CCFF" fill-opacity="0.3" stroke="#F0CCFF" stroke-width="2.0983"/>
<path d="M368.601 166.727C368.601 175.161 363.745 183.724 354.533 191.9C345.336 200.063 331.952 207.693 315.303 214.237C282.016 227.321 235.944 235.96 185 235.96C134.056 235.96 87.9841 227.321 54.697 214.237C38.0482 207.693 24.6637 200.063 15.4668 191.9C6.25513 183.724 1.39887 175.161 1.39887 166.727C1.39887 158.36 6.18421 151.134 15.3229 144.941C24.48 138.736 37.8366 133.701 54.5072 129.757C87.8284 121.876 133.951 118.456 185 118.456C236.049 118.456 282.172 121.876 315.493 129.757C332.163 133.701 345.52 138.736 354.677 144.941C363.816 151.134 368.601 158.36 368.601 166.727Z" fill="#D90479" stroke="#2C1E40" stroke-width="2.79773"/>
<path d="M150.482 156.719C110.415 153.5 83.2574 131.072 73.4093 119.055C72.4604 117.897 71.9747 116.443 72.0933 114.95C73.5522 96.5919 91.7063 74.3372 97.7365 69.9349C101.053 33.4089 123.746 8.1759 128.11 4.29391C145.795 6.57231 157.453 23.9955 161.544 30.1095L161.626 30.2327C175.417 25.9978 200.903 28.6446 205.965 30.2327C220.279 11.3521 227.786 4.64682 233.721 2C261.127 21.2335 265.482 60.1822 266.704 67.5933C284.11 82.8818 291.121 99.1228 292.793 115.287C292.951 116.814 292.552 118.351 291.662 119.602C265.417 156.48 202.297 160.881 150.482 156.719Z" fill="#F0CCFF" fill-opacity="0.2"/>
<path d="M145.5 45.5C131.5 48.5 124 56 113.5 80" stroke="#F0CCFF" stroke-width="6" stroke-linecap="round"/>
<path d="M132.718 122.128C115.651 138.214 120.921 148.586 124.768 150.626C133.763 154.537 163.043 158.574 185.782 159.23C208.373 159.882 222.857 156.802 238.682 151.504C246.026 145.908 226.5 126.965 220.321 121.603C219.331 120.262 217.943 115.518 220.321 107.265C223.294 97.1228 218.048 88.7296 215.425 86.4565C216.442 74.7607 213.352 61.7505 210.931 58.894C210.796 58.7341 210.585 58.6663 210.382 58.7171C206.731 59.6305 199.232 67.7309 196.764 71.0991C196.427 71.5588 195.797 71.7155 195.282 71.471C186.473 67.2866 169.388 69.6465 164.509 71.6331C164.096 71.8015 163.622 71.7409 163.282 71.4512C157.878 66.8396 149.319 63.3323 145.617 62.5868C145.325 62.5282 145.038 62.6743 144.913 62.9439C141.921 69.3856 144.278 81.8955 145.132 88.7296C138.488 92.5765 139.537 104.991 140.411 109.363C141.285 113.734 138.468 116.707 132.718 122.128Z" fill="white" stroke="#2C1E40" stroke-width="2.0983"/>
<path d="M113.034 146.715C111.915 141.399 126.831 126.79 135.166 119.68C136.04 121.253 146.009 119.68 149.681 119.68C153.353 119.68 154.752 122.652 148.632 125.974C142.512 129.297 147.932 129.821 154.752 130.346C161.571 130.87 160.522 134.368 154.752 136.816C142.482 142.021 141.811 150.557 140.412 154.928C129.07 152.972 116.163 147.888 113.034 146.715Z" fill="#F0CCFF" stroke="#2C1E40" stroke-width="1.56448"/>
<path d="M152.504 103.676C148.036 105.779 142.387 111.099 139.889 113.909C139.889 112.86 141.091 111.286 139.889 106.565C137.441 96.948 142.162 91.1777 144.26 88.9045C146.007 86.4565 143.384 80.861 144.783 82.6096C146.798 84.2251 153.953 90.246 156.313 92.5236C156.727 92.9234 156.646 93.5464 156.178 93.8819L148.379 99.4748C148.136 99.6494 148.208 100.035 148.495 100.12C149.696 100.476 151.418 101.124 152.769 102.01C153.415 102.434 153.203 103.347 152.504 103.676Z" fill="#F0CCFF" stroke="#2C1E40" stroke-width="1.56448" stroke-linecap="round"/>
<path d="M193.046 78.9375C188.535 77.1332 188.625 72.7163 189.351 70.2549C189.451 69.916 189.805 69.734 190.146 69.8268C191.396 70.1674 193.533 70.8143 195.595 71.6281C196.049 71.8075 196.57 71.6614 196.862 71.2692C202.146 64.1624 207.834 60.0105 211.056 58.654C213.987 62.4469 216.578 78.4791 215.477 85.9674C215.447 86.1707 215.503 86.3725 215.641 86.5255C216.24 87.1952 216.977 87.9076 218.223 89.7788C220.319 92.9262 221.021 97.4725 220.496 97.1228C216.08 97.6381 208.27 87.7195 206.51 83.6587C204.237 78.413 199.166 81.3856 193.046 78.9375Z" fill="#F0CCFF" stroke="#2C1E40" stroke-width="1.56448"/>
<path d="M190.071 146.957C189.512 151.154 183.52 156.641 181.48 158.448C196.734 161.968 241.437 153.764 244.06 152.19C244.234 146.944 240.148 143.194 237.41 139.963C233.58 135.442 228.009 129.858 223.837 125.286C222.755 124.101 217.617 125.587 217.227 127.145C214.746 137.042 208.21 142.788 203.71 139.963C196.191 135.242 190.771 141.712 190.071 146.957Z" fill="#F0CCFF" stroke="#2C1E40" stroke-width="1.56448"/>
<path d="M145.657 99.9205C142.393 99.3376 134.641 99.9555 129.745 107.09" stroke="#2C1E40" stroke-width="1.39887" stroke-linecap="round"/>
<path d="M208.256 97.6474C214.609 93.6839 230.043 87.1209 240.955 92.5765" stroke="#2C1E40" stroke-width="1.39887" stroke-linecap="round"/>
<path d="M209.13 100.62C215.367 98.6383 228.68 97.2977 232.037 107.789" stroke="#2C1E40" stroke-width="1.39887" stroke-linecap="round"/>
<path d="M146.881 94.325C143.733 90.4782 132.892 82.9593 119.253 85.0576" stroke="#2C1E40" stroke-width="1.39887" stroke-linecap="round"/>
<path d="M143.559 95.1994C138.429 93.2177 126.947 91.5973 117.854 98.172" stroke="#2C1E40" stroke-width="1.39887" stroke-linecap="round"/>
<path d="M209.83 93.276C215.542 88.4382 230.988 76.6644 238.507 85.0576" stroke="#2C1E40" stroke-width="1.39887" stroke-linecap="round"/>
<ellipse cx="168.039" cy="88.9045" rx="1.92344" ry="2.97259" fill="#2C1E40"/>
<ellipse cx="195.317" cy="88.9044" rx="1.92344" ry="2.97259" fill="#2C1E40"/>
<path d="M181.373 99.0462C181.373 99.3377 181.373 100.515 181.373 102.893C181.373 106.915 173.33 114.958 162.489 107.964C156.194 103.593 158.642 97.6474 160.39 97.1228" stroke="#2C1E40" stroke-width="2.0983" stroke-linecap="round"/>
<path d="M181.548 99.0462C181.548 99.3377 181.548 100.515 181.548 102.893C181.548 106.915 189.591 114.958 200.432 107.964C206.727 103.593 204.279 97.6474 202.531 97.1228" stroke="#2C1E40" stroke-width="2.0983" stroke-linecap="round"/>
<path d="M182.162 99.1783C181.742 99.7282 180.914 99.7282 180.494 99.1783L176.407 93.8252C175.88 93.1348 176.372 92.1394 177.241 92.1394L185.416 92.1394C186.284 92.1394 186.777 93.1348 186.25 93.8252L182.162 99.1783Z" fill="#2C1E40"/>
<path d="M211.237 127.299C211.328 123.459 214.821 122.415 216.842 122.503C217.418 122.411 219.407 122.375 220.468 121.921C221.793 121.354 229.714 118.843 233.472 120.188C240.214 122.471 239.208 127.237 237.628 131.74C236.286 135.57 232.748 134.502 230.326 133.558C229.664 133.3 228.929 133.58 228.535 134.171C225.858 138.18 222.482 137.184 220.393 135.627C219.765 135.158 218.866 135.142 218.179 135.52C217.133 136.096 215.72 136.425 214.494 135.454C212.262 133.687 211.122 132.099 211.237 127.299Z" fill="white" stroke="#2C1E40" stroke-width="1.5"/>
<path d="M140.824 121.509C140.439 117.687 136.877 116.912 134.868 117.156C134.287 117.107 132.301 117.224 131.209 116.853C129.843 116.389 121.754 114.491 118.11 116.119C111.563 118.911 112.93 123.586 114.849 127.956C116.481 131.672 119.927 130.336 122.27 129.21C122.91 128.902 123.664 129.125 124.103 129.684C127.078 133.476 130.368 132.225 132.331 130.512C132.922 129.996 133.817 129.912 134.531 130.236C135.618 130.731 137.052 130.951 138.201 129.889C140.291 127.956 141.306 126.286 140.824 121.509Z" fill="white" stroke="#2C1E40" stroke-width="1.5"/>
<ellipse cx="164.891" cy="98.6966" rx="1.22401" ry="0.524575" fill="#554074"/>
<ellipse cx="167.339" cy="102.194" rx="1.92344" ry="0.874291" fill="#554074"/>
<ellipse cx="170.662" cy="98.6966" rx="0.699433" ry="0.524575" fill="#554074"/>
<ellipse cx="191.295" cy="98.3469" rx="1.74858" ry="0.874291" fill="#554074"/>
<ellipse cx="196.541" cy="97.9972" rx="1.04915" ry="0.524575" fill="#554074"/>
<ellipse cx="194.093" cy="101.669" rx="1.04915" ry="0.349716" fill="#554074"/>
<mask id="path-29-inside-1_498_829" fill="white">
<path fill-rule="evenodd" clip-rule="evenodd" d="M129.396 145.653C129.396 144.544 130.261 143.637 131.359 143.488C137.438 142.667 141.905 139.86 142.26 136.131C142.735 131.132 135.638 126.368 126.409 125.491C117.18 124.613 109.313 127.955 108.838 132.954C108.459 136.936 112.885 140.769 119.366 142.607C120.314 142.876 121.003 143.72 121.003 144.705V155.525C121.003 156.684 121.942 157.624 123.101 157.624H127.297C128.456 157.624 129.396 156.684 129.396 155.525V145.653Z"/>
</mask>
<path fill-rule="evenodd" clip-rule="evenodd" d="M129.396 145.653C129.396 144.544 130.261 143.637 131.359 143.488C137.438 142.667 141.905 139.86 142.26 136.131C142.735 131.132 135.638 126.368 126.409 125.491C117.18 124.613 109.313 127.955 108.838 132.954C108.459 136.936 112.885 140.769 119.366 142.607C120.314 142.876 121.003 143.72 121.003 144.705V155.525C121.003 156.684 121.942 157.624 123.101 157.624H127.297C128.456 157.624 129.396 156.684 129.396 155.525V145.653Z" fill="#554074"/>
<path d="M142.26 136.131L140.171 135.932V135.932L142.26 136.131ZM126.409 125.491L126.608 123.402L126.409 125.491ZM108.838 132.954L106.749 132.756L108.838 132.954ZM140.171 135.932C140.074 136.958 139.394 138.095 137.799 139.15C136.209 140.201 133.896 141.028 131.078 141.409L131.64 145.567C134.901 145.127 137.861 144.14 140.114 142.65C142.361 141.164 144.092 139.033 144.349 136.329L140.171 135.932ZM126.211 127.58C130.547 127.992 134.278 129.311 136.804 131.007C139.408 132.755 140.301 134.563 140.171 135.932L144.349 136.329C144.694 132.699 142.276 129.626 139.143 127.523C135.932 125.367 131.501 123.867 126.608 123.402L126.211 127.58ZM110.927 133.153C111.057 131.783 112.274 130.176 115.161 128.95C117.961 127.761 121.874 127.167 126.211 127.58L126.608 123.402C121.715 122.937 117.08 123.576 113.52 125.088C110.047 126.563 107.094 129.126 106.749 132.756L110.927 133.153ZM119.939 140.588C116.921 139.732 114.506 138.444 112.935 137.026C111.349 135.597 110.823 134.246 110.927 133.153L106.749 132.756C106.474 135.645 107.971 138.201 110.124 140.143C112.291 142.097 115.331 143.644 118.794 144.626L119.939 140.588ZM123.101 155.525V144.705H118.904V155.525H123.101ZM127.297 155.525H123.101V159.722H127.297V155.525ZM127.297 145.653V155.525H131.494V145.653H127.297ZM118.904 155.525C118.904 157.843 120.783 159.722 123.101 159.722V155.525H123.101H118.904ZM118.794 144.626C118.842 144.639 118.876 144.666 118.893 144.689C118.902 144.699 118.904 144.705 118.904 144.706C118.905 144.707 118.905 144.707 118.904 144.706C118.904 144.705 118.904 144.704 118.904 144.705H123.101C123.101 142.707 121.715 141.092 119.939 140.588L118.794 144.626ZM127.297 159.722C129.615 159.722 131.494 157.843 131.494 155.525H127.297V159.722ZM131.078 141.409C129.035 141.685 127.297 143.399 127.297 145.653H131.494C131.494 145.651 131.494 145.651 131.494 145.652C131.494 145.653 131.493 145.654 131.494 145.653C131.494 145.652 131.498 145.644 131.509 145.632C131.535 145.604 131.58 145.576 131.64 145.567L131.078 141.409Z" fill="#2C1E40" mask="url(#path-29-inside-1_498_829)"/>
<mask id="path-31-inside-2_498_829" fill="white">
<path fill-rule="evenodd" clip-rule="evenodd" d="M227.316 148.022C227.316 147.044 227.996 146.203 228.935 145.93C235.631 143.983 240.189 139.946 239.7 135.877C239.102 130.891 231.155 127.744 221.95 128.849C212.746 129.953 205.769 134.89 206.367 139.876C206.801 143.493 211.101 146.142 216.943 146.902C218.049 147.046 218.923 147.956 218.923 149.071V160.072C218.923 161.231 219.862 162.17 221.021 162.17H225.217C226.376 162.17 227.316 161.231 227.316 160.072V148.022Z"/>
</mask>
<path fill-rule="evenodd" clip-rule="evenodd" d="M227.316 148.022C227.316 147.044 227.996 146.203 228.935 145.93C235.631 143.983 240.189 139.946 239.7 135.877C239.102 130.891 231.155 127.744 221.95 128.849C212.746 129.953 205.769 134.89 206.367 139.876C206.801 143.493 211.101 146.142 216.943 146.902C218.049 147.046 218.923 147.956 218.923 149.071V160.072C218.923 161.231 219.862 162.17 221.021 162.17H225.217C226.376 162.17 227.316 161.231 227.316 160.072V148.022Z" fill="#554074"/>
<path d="M239.7 135.877L237.617 136.127V136.127L239.7 135.877ZM221.95 128.849L222.2 130.932L221.95 128.849ZM206.367 139.876L204.283 140.126L206.367 139.876ZM216.943 146.902L216.672 148.983L216.943 146.902ZM228.935 145.93L229.521 147.945L228.935 145.93ZM237.617 136.127C237.751 137.243 237.229 138.649 235.592 140.154C233.972 141.644 231.472 143.007 228.349 143.915L229.521 147.945C233.095 146.905 236.221 145.277 238.432 143.243C240.626 141.226 242.138 138.58 241.784 135.627L237.617 136.127ZM222.2 130.932C226.525 130.413 230.452 130.91 233.28 132.03C236.197 133.184 237.453 134.761 237.617 136.127L241.784 135.627C241.349 132.006 238.334 129.517 234.825 128.128C231.23 126.704 226.58 126.18 221.7 126.765L222.2 130.932ZM208.45 139.626C208.286 138.261 209.134 136.431 211.695 134.62C214.178 132.862 217.876 131.451 222.2 130.932L221.7 126.765C216.82 127.351 212.427 128.96 209.27 131.194C206.19 133.374 203.849 136.506 204.283 140.126L208.45 139.626ZM217.214 144.822C214.512 144.47 212.299 143.695 210.771 142.701C209.241 141.707 208.57 140.622 208.45 139.626L204.283 140.126C204.598 142.747 206.293 144.795 208.483 146.219C210.674 147.644 213.532 148.574 216.672 148.983L217.214 144.822ZM221.021 160.072V149.071H216.824V160.072H221.021ZM225.217 160.072H221.021V164.268H225.217V160.072ZM225.217 148.022V160.072H229.414V148.022H225.217ZM216.824 160.072C216.824 162.39 218.703 164.268 221.021 164.268V160.072H221.021H216.824ZM216.672 148.983C216.734 148.991 216.782 149.02 216.808 149.049C216.82 149.062 216.824 149.07 216.825 149.072C216.825 149.072 216.825 149.072 216.824 149.07C216.824 149.069 216.824 149.069 216.824 149.071H221.021C221.021 146.804 219.264 145.089 217.214 144.822L216.672 148.983ZM225.217 164.268C227.535 164.268 229.414 162.39 229.414 160.072H225.217V160.072V164.268ZM228.349 143.915C226.586 144.428 225.217 146.038 225.217 148.022H229.414C229.414 148.022 229.414 148.022 229.414 148.023C229.414 148.024 229.414 148.024 229.414 148.024C229.414 148.023 229.417 148.016 229.424 148.006C229.442 147.984 229.474 147.958 229.521 147.945L228.349 143.915Z" fill="#2C1E40" mask="url(#path-31-inside-2_498_829)"/>
<mask id="path-33-inside-3_498_829" fill="white">
<path fill-rule="evenodd" clip-rule="evenodd" d="M74.4383 117.812C84.1071 129.349 109.064 147.856 151.253 154.476C202.655 162.543 270.916 149.917 291.117 117.962C291.833 116.83 292.135 115.493 292.027 114.158C291.584 108.657 290.656 104.149 289.212 100.136C326.39 111.458 350.066 128.543 350.066 147.657C350.066 181.747 274.755 209.382 181.853 209.382C88.951 209.382 13.6392 181.747 13.6392 147.657C13.6392 128.036 38.5889 110.553 77.4821 99.2469C75.2208 104.327 73.5802 109.348 73.1265 113.687C72.9695 115.189 73.4688 116.655 74.4383 117.812Z"/>
</mask>
<path fill-rule="evenodd" clip-rule="evenodd" d="M74.4383 117.812C84.1071 129.349 109.064 147.856 151.253 154.476C202.655 162.543 270.916 149.917 291.117 117.962C291.833 116.83 292.135 115.493 292.027 114.158C291.584 108.657 290.656 104.149 289.212 100.136C326.39 111.458 350.066 128.543 350.066 147.657C350.066 181.747 274.755 209.382 181.853 209.382C88.951 209.382 13.6392 181.747 13.6392 147.657C13.6392 128.036 38.5889 110.553 77.4821 99.2469C75.2208 104.327 73.5802 109.348 73.1265 113.687C72.9695 115.189 73.4688 116.655 74.4383 117.812Z" fill="#F455AC"/>
<path d="M151.253 154.476L150.819 157.24L151.253 154.476ZM74.4383 117.812L76.5825 116.015L76.5825 116.015L74.4383 117.812ZM291.117 117.962L288.753 116.467V116.467L291.117 117.962ZM292.027 114.158L294.816 113.933L294.816 113.933L292.027 114.158ZM289.212 100.136L290.027 97.4599L284.691 95.8347L286.58 101.084L289.212 100.136ZM77.4821 99.2469L80.0381 100.385L82.4891 94.8779L76.7012 96.5604L77.4821 99.2469ZM73.1265 113.687L75.909 113.978V113.978L73.1265 113.687ZM151.687 151.713C110.094 145.186 85.7726 126.981 76.5825 116.015L72.294 119.609C82.4416 131.718 108.033 150.526 150.819 157.24L151.687 151.713ZM288.753 116.467C279.254 131.491 258.057 142.409 232.243 148.504C206.575 154.565 177.025 155.689 151.687 151.713L150.819 157.24C176.883 161.33 207.164 160.175 233.528 153.95C259.745 147.76 282.779 136.388 293.482 119.457L288.753 116.467ZM289.239 114.382C289.301 115.155 289.123 115.881 288.753 116.467L293.482 119.457C294.543 117.779 294.969 115.832 294.816 113.933L289.239 114.382ZM286.58 101.084C287.924 104.818 288.811 109.075 289.239 114.382L294.816 113.933C294.358 108.24 293.389 103.48 291.845 99.1888L286.58 101.084ZM288.397 102.813C306.809 108.42 321.678 115.398 331.882 123.198C342.123 131.025 347.269 139.348 347.269 147.657H352.864C352.864 136.852 346.172 127.076 335.28 118.752C324.352 110.4 308.794 103.175 290.027 97.4599L288.397 102.813ZM347.269 147.657C347.269 155.067 343.185 162.481 335.014 169.57C326.85 176.652 314.875 183.157 299.834 188.677C269.775 199.707 228.063 206.584 181.853 206.584V212.18C228.545 212.18 270.939 205.24 301.762 193.93C317.162 188.279 329.82 181.483 338.681 173.796C347.534 166.116 352.864 157.291 352.864 147.657H347.269ZM181.853 206.584C135.643 206.584 93.9305 199.707 63.8716 188.677C48.8309 183.157 36.8553 176.652 28.6916 169.57C20.5206 162.481 16.4369 155.067 16.4369 147.657H10.8414C10.8414 157.291 16.1717 166.116 25.0248 173.796C33.8853 181.483 46.544 188.279 61.944 193.93C92.7664 205.24 135.161 212.18 181.853 212.18V206.584ZM16.4369 147.657C16.4369 139.127 21.8627 130.58 32.643 122.58C43.3778 114.614 58.9938 107.535 78.2631 101.933L76.7012 96.5604C57.0773 102.265 40.7718 109.58 29.3084 118.087C17.8905 126.56 10.8414 136.565 10.8414 147.657H16.4369ZM75.909 113.978C76.3193 110.055 77.8322 105.341 80.0381 100.385L74.9261 98.1093C72.6095 103.314 70.8412 108.64 70.3439 113.396L75.909 113.978ZM76.5825 116.015C76.0559 115.387 75.8377 114.66 75.909 113.978L70.3439 113.396C70.1013 115.717 70.8816 117.924 72.294 119.609L76.5825 116.015Z" fill="#2C1E40" mask="url(#path-33-inside-3_498_829)"/>
<path d="M149 155.5C108.856 149.421 80.9217 129.748 72.9037 117.738C72.2452 116.752 71.9442 115.588 72.0485 114.407C73.4259 98.806 91.6901 73.6942 97.7461 69.3204C101.068 33.1248 123.8 8.12004 128.171 4.27316C145.886 6.53095 157.564 23.7965 161.662 29.8552L161.744 29.9773C175.558 25.7807 201.087 28.4036 206.158 29.9773C220.497 11.2675 228.016 4.62287 233.961 2C261.413 21.0595 266.276 59.656 267.5 67C285.159 82.3446 292.028 96.0343 293.233 114.61C293.318 115.908 293.013 117.206 292.331 118.313C269.272 155.71 195.713 162.574 149 155.5Z" fill="#F0CCFF" fill-opacity="0.2" stroke="#F0CCFF" stroke-width="3"/>
<ellipse cx="67.8745" cy="150.703" rx="17.7047" ry="7.13487" transform="rotate(25.9169 67.8745 150.703)" fill="white" fill-opacity="0.87"/>
<ellipse cx="133.838" cy="177.981" rx="17.7047" ry="7.13487" transform="rotate(10.4393 133.838 177.981)" fill="white" fill-opacity="0.87"/>
<ellipse cx="17.7047" cy="7.13487" rx="17.7047" ry="7.13487" transform="matrix(-0.899429 0.437068 0.437068 0.899429 308.08 138.739)" fill="white" fill-opacity="0.87"/>
<ellipse cx="17.7047" cy="7.13487" rx="17.7047" ry="7.13487" transform="matrix(-0.98975 0.142814 0.142814 0.98975 240.569 171.189)" fill="white" fill-opacity="0.87"/>
<path d="M67.0281 230.849C62.4882 229.455 61.3389 225.956 60.8118 223.911C60.7754 223.77 60.5807 223.772 60.5483 223.914C60.0583 226.059 59.1837 229.804 53.7013 231.04C53.5414 231.076 53.5474 231.352 53.7097 231.376C58.9209 232.153 59.8045 234.111 61.0127 238.128C61.0562 238.273 61.2683 238.259 61.2906 238.11C61.6507 235.691 62.5351 232.102 66.9882 231.372C67.158 231.344 67.1926 230.9 67.0281 230.849Z" fill="white" fill-opacity="0.87"/>
<path d="M51.9502 253.646C46.5118 251.649 44.9137 247.584 44.163 244.995C44.0836 244.721 43.7062 244.724 43.6367 245.001C42.9307 247.813 41.5688 252.362 34.4923 254.115C34.1706 254.194 34.1855 254.801 34.5126 254.853C41.2873 255.945 42.6298 258.49 44.2801 263.488C44.3731 263.77 44.7882 263.737 44.8389 263.445C45.3611 260.434 46.6214 256.293 51.8665 254.975C52.2025 254.891 52.2753 253.766 51.9502 253.646Z" fill="white" fill-opacity="0.87"/>
<path d="M286.506 245.204C282.082 243.579 280.781 240.272 280.171 238.165C280.106 237.943 279.799 237.945 279.743 238.17C279.168 240.459 278.06 244.159 272.303 245.585C272.041 245.65 272.053 246.143 272.319 246.186C277.831 247.074 278.923 249.144 280.266 253.211C280.342 253.44 280.679 253.413 280.721 253.176C281.145 250.726 282.171 247.357 286.438 246.285C286.711 246.216 286.77 245.301 286.506 245.204Z" fill="white" fill-opacity="0.87"/>
<path d="M318.594 278.077C314.17 276.452 312.87 273.145 312.259 271.039C312.194 270.816 311.887 270.818 311.831 271.043C311.256 273.332 310.148 277.032 304.391 278.458C304.129 278.523 304.141 279.016 304.408 279.059C309.919 279.947 311.011 282.018 312.354 286.084C312.43 286.313 312.767 286.287 312.809 286.049C313.233 283.599 314.259 280.23 318.526 279.158C318.799 279.09 318.859 278.174 318.594 278.077Z" fill="white" fill-opacity="0.87"/>
<path d="M313.323 314.083C304.962 311.012 302.506 304.763 301.352 300.783C301.229 300.361 300.649 300.366 300.542 300.791C299.457 305.116 297.363 312.108 286.485 314.803C285.99 314.925 286.013 315.857 286.516 315.938C296.931 317.616 298.995 321.529 301.532 329.213C301.675 329.645 302.313 329.595 302.391 329.146C303.193 324.517 305.131 318.151 313.194 316.125C313.711 315.996 313.823 314.266 313.323 314.083Z" fill="white" fill-opacity="0.87"/>
<path d="M184.424 338.494C184.074 338.329 183.657 338.479 183.493 338.829C183.328 339.178 183.478 339.595 183.828 339.759L184.424 338.494ZM190.071 358.361L190.328 359.012L190.071 358.361ZM201.903 361.508C201.903 363.569 203.573 365.239 205.633 365.239C207.693 365.239 209.364 363.569 209.364 361.508C209.364 359.448 207.693 357.778 205.633 357.778C203.573 357.778 201.903 359.448 201.903 361.508ZM183.828 339.759C184.668 340.155 185.834 341.134 186.453 342.767C187.064 344.379 187.168 346.707 185.76 349.857L187.037 350.428C188.567 347.004 188.526 344.29 187.761 342.271C187.004 340.273 185.566 339.031 184.424 338.494L183.828 339.759ZM185.76 349.857C185.009 351.538 184.521 353.062 184.305 354.379C184.091 355.684 184.135 356.849 184.522 357.766C184.926 358.724 185.686 359.357 186.737 359.562C187.742 359.757 188.956 359.553 190.328 359.012L189.814 357.71C188.563 358.204 187.639 358.312 187.005 358.188C186.416 358.074 186.036 357.756 185.811 357.222C185.568 356.647 185.493 355.78 185.686 354.605C185.877 353.441 186.319 352.035 187.037 350.428L185.76 349.857ZM190.328 359.012C192.488 358.159 195.82 357.301 198.794 357.459C200.277 357.539 201.622 357.868 202.688 358.532C203.735 359.184 204.55 360.183 204.958 361.691L206.308 361.326C205.808 359.477 204.776 358.185 203.427 357.344C202.096 356.515 200.496 356.15 198.869 356.063C195.624 355.889 192.083 356.815 189.814 357.71L190.328 359.012Z" fill="#2C1E40"/>
<path fill-rule="evenodd" clip-rule="evenodd" d="M156.429 294.461C157.282 288.937 160.689 280.746 168.563 287.019C168.61 286.986 168.657 286.952 168.706 286.917C171.212 285.122 176.41 281.398 184.301 289.117C190.072 294.763 189.173 301.698 187.503 305.42C192.464 309.485 195.744 314.965 195.317 322.34C193.918 346.471 170.948 342.5 163.842 333.706C157.955 326.42 147.231 308.282 151.427 294.013C152.473 294.065 154.22 294.196 156.429 294.461Z" fill="white" fill-opacity="0.87"/>
<path d="M168.563 287.019L167.91 287.839L168.529 288.333L169.173 287.873L168.563 287.019ZM156.429 294.461L156.304 295.503L157.311 295.623L157.466 294.621L156.429 294.461ZM168.706 286.917L169.317 287.77L169.317 287.77L168.706 286.917ZM184.301 289.117L185.034 288.367L185.034 288.367L184.301 289.117ZM187.503 305.42L186.545 304.99L186.217 305.723L186.838 306.231L187.503 305.42ZM195.317 322.34L194.269 322.279L195.317 322.34ZM163.842 333.706L164.658 333.047L163.842 333.706ZM151.427 294.013L151.48 292.965L150.654 292.924L150.421 293.717L151.427 294.013ZM169.217 286.198C167.145 284.547 165.238 283.743 163.485 283.71C161.701 283.675 160.247 284.441 159.119 285.576C156.934 287.774 155.827 291.482 155.392 294.301L157.466 294.621C157.883 291.917 158.906 288.767 160.607 287.056C161.421 286.237 162.349 285.786 163.445 285.807C164.573 285.829 166.045 286.354 167.91 287.839L169.217 286.198ZM168.095 286.064C168.046 286.099 167.999 286.132 167.954 286.165L169.173 287.873C169.22 287.839 169.268 287.804 169.317 287.77L168.095 286.064ZM185.034 288.367C180.941 284.363 177.389 283.184 174.407 283.403C171.483 283.617 169.34 285.172 168.095 286.064L169.317 287.77C170.577 286.867 172.287 285.662 174.561 285.496C176.777 285.333 179.769 286.152 183.567 289.867L185.034 288.367ZM188.46 305.849C190.244 301.873 191.22 294.419 185.034 288.367L183.567 289.867C188.923 295.106 188.101 301.524 186.545 304.99L188.46 305.849ZM196.364 322.401C196.815 314.621 193.329 308.837 188.167 304.608L186.838 306.231C191.598 310.132 194.673 315.309 194.269 322.279L196.364 322.401ZM163.026 334.365C166.817 339.058 174.704 342.381 181.861 341.409C185.481 340.918 188.954 339.321 191.606 336.214C194.252 333.113 196.005 328.598 196.364 322.401L194.269 322.279C193.929 328.147 192.286 332.185 190.01 334.852C187.74 337.512 184.764 338.897 181.578 339.33C175.124 340.207 167.972 337.148 164.658 333.047L163.026 334.365ZM150.421 293.717C148.225 301.183 149.952 309.551 152.879 316.868C155.816 324.207 160.026 330.652 163.026 334.365L164.658 333.047C161.771 329.474 157.676 323.207 154.827 316.088C151.97 308.947 150.433 301.112 152.434 294.309L150.421 293.717ZM156.554 293.419C154.322 293.152 152.551 293.019 151.48 292.965L151.375 295.061C152.396 295.112 154.118 295.24 156.304 295.503L156.554 293.419Z" fill="#2C1E40"/>
<path d="M164.367 293.489C166.465 288.068 173.18 279.43 183.251 288.243C195.841 299.259 185 317.619 169.962 311.499" stroke="#2C1E40" stroke-width="2.0983" stroke-linecap="round"/>
<path d="M151.427 297.86V293.664C151.952 293.664 153.246 293.838 154.225 294.538C155.204 295.237 152.768 297.044 151.427 297.86Z" fill="#2C1E40"/>
<ellipse cx="158.487" cy="299.005" rx="1.22401" ry="2.62287" transform="rotate(23.3569 158.487 299.005)" fill="#2C1E40"/>
<path d="M168.563 286.797C165.115 283.9 157.84 281.812 156.323 294.013" stroke="#2C1E40" stroke-width="2.0983" stroke-linecap="round"/>
</svg>
