<svg width="279" height="285" viewBox="0 0 279 285" fill="none" xmlns="http://www.w3.org/2000/svg">
<g clip-path="url(#clip0_767_2813)">
<path d="M90.9451 187.699C101.188 184.053 97.0422 171.251 93.6888 165.305C121.605 166.868 176.157 171.008 171.035 175.07C164.633 180.147 165.156 190.563 174.824 193.688C186.713 198.765 179.92 207.219 179.92 211.915C179.92 217.122 176.2 221.695 190.894 228.319C205.117 234.73 202.392 253.056 200.563 257.092C194.067 271.423 180.442 278.574 135.498 281.828C90.5533 285.083 65.7293 263.992 58.9353 253.056C52.1414 242.12 58.9353 228.84 68.473 223.762C78.0106 218.685 77.2266 215.169 76.8347 205.014C76.4427 194.859 78.1412 192.255 90.9451 187.699Z" fill="#F0CCFF" fill-opacity="0.3"/>
<path d="M140.879 245.483C140.289 245.207 139.586 245.461 139.31 246.051C139.033 246.641 139.287 247.344 139.877 247.621L140.879 245.483ZM144.199 258.869L144.631 259.967L144.199 258.869ZM147.905 260.885C147.905 264.361 150.723 267.179 154.199 267.179C157.676 267.179 160.494 264.361 160.494 260.885C160.494 257.408 157.676 254.59 154.199 254.59C150.723 254.59 147.905 257.408 147.905 260.885ZM139.877 247.621C140.259 247.8 140.866 248.29 141.191 249.144C141.502 249.963 141.602 251.249 140.762 253.123L142.916 254.089C143.963 251.753 143.97 249.811 143.397 248.305C142.838 246.833 141.771 245.901 140.879 245.483L139.877 247.621ZM140.762 253.123C140.262 254.238 139.924 255.276 139.773 256.2C139.624 257.104 139.635 258.008 139.96 258.774C140.314 259.61 141.002 260.179 141.917 260.357C142.755 260.52 143.687 260.339 144.631 259.967L143.767 257.771C143.025 258.063 142.582 258.082 142.367 258.04C142.229 258.013 142.184 257.972 142.133 257.854C142.053 257.664 141.989 257.267 142.102 256.583C142.211 255.918 142.472 255.08 142.916 254.089L140.762 253.123ZM144.631 259.967C145.962 259.444 147.994 258.929 149.766 259.023C150.644 259.07 151.376 259.262 151.922 259.601C152.438 259.921 152.847 260.407 153.061 261.194L155.338 260.575C154.968 259.213 154.19 258.231 153.167 257.596C152.172 256.978 151.011 256.726 149.891 256.666C147.666 256.548 145.282 257.175 143.767 257.771L144.631 259.967Z" fill="#2C1E40"/>
<path fill-rule="evenodd" clip-rule="evenodd" d="M122.579 217.949C123.127 214.412 125.317 209.167 130.377 213.184C130.407 213.162 130.438 213.141 130.469 213.118C132.079 211.969 135.42 209.584 140.491 214.527C144.199 218.142 143.621 222.584 142.548 224.967C145.736 227.57 147.845 231.079 147.57 235.802C146.671 251.255 131.91 248.712 127.343 243.08C123.56 238.415 116.668 226.799 119.365 217.662C120.037 217.696 121.16 217.779 122.579 217.949Z" fill="white" fill-opacity="0.87"/>
<path d="M127.68 217.327C129.029 213.856 133.344 208.324 139.816 213.968C147.907 221.022 140.94 232.779 131.276 228.86" stroke="#675279" stroke-width="2.36038" stroke-linecap="round"/>
<ellipse cx="0.786149" cy="1.68055" rx="0.786149" ry="1.68055" transform="matrix(0.918559 0.395284 -0.397635 0.917544 123.848 219.007)" fill="#2C1E40"/>
<path d="M274.776 126.003C274.776 131.915 271.385 138.077 264.629 144.102C257.894 150.108 248.036 155.769 235.694 160.643C211.026 170.387 176.82 176.841 138.956 176.841C101.092 176.841 66.8857 170.387 42.2171 160.643C29.8752 155.769 20.0175 150.108 13.2825 144.102C6.52653 138.077 3.1356 131.915 3.1356 126.003C3.1356 120.186 6.42314 115.048 13.0709 110.521C19.7469 105.976 29.5629 102.24 41.9369 99.299C66.6557 93.4237 100.938 90.8628 138.956 90.8628C176.974 90.8628 211.256 93.4237 235.975 99.299C248.349 102.24 258.165 105.976 264.841 110.521C271.488 115.048 274.776 120.186 274.776 126.003Z" fill="#D90479" stroke="#2C1E40" stroke-width="4.11666"/>
<path d="M111.602 35.6033C101.141 37.837 95.5372 43.4212 87.6917 61.2908" stroke="#F0CCFF" stroke-width="4.11666" stroke-linecap="round"/>
<path fill-rule="evenodd" clip-rule="evenodd" d="M60.2813 87.0672C65.9815 96.0009 86.203 110.749 115.314 115.294C149.104 120.57 202.341 115.436 218.914 87.4797C219.357 86.7319 219.556 85.8646 219.503 84.9968C219.33 82.1448 218.985 79.4477 218.434 76.863C246.528 85.2915 264.452 98.0857 264.452 112.411C264.452 137.793 208.18 158.369 138.764 158.369C69.3489 158.369 13.0765 137.793 13.0765 112.411C13.0765 97.5938 32.2522 84.4147 62.0242 76.0103C60.7791 79.1456 59.9266 82.1756 59.7203 84.8281C59.6589 85.6185 59.8549 86.3989 60.2813 87.0672Z" fill="#F455AC"/>
<ellipse cx="13.2199" cy="5.31596" rx="13.2199" ry="5.31596" transform="matrix(0.900032 0.435824 -0.438313 0.898822 44.0321 103.394)" fill="white" fill-opacity="0.87"/>
<ellipse cx="13.2273" cy="5.31299" rx="13.2273" ry="5.31299" transform="matrix(0.983561 0.180578 -0.181812 0.983333 90.8439 126.631)" fill="white" fill-opacity="0.87"/>
<ellipse cx="13.2199" cy="5.31596" rx="13.2199" ry="5.31596" transform="matrix(-0.900032 0.435824 0.438313 0.898822 233.08 105.026)" fill="white" fill-opacity="0.87"/>
<ellipse cx="13.2278" cy="5.31276" rx="13.2278" ry="5.31276" transform="matrix(-0.98982 0.142322 0.143307 0.989678 182.636 129.187)" fill="white" fill-opacity="0.87"/>
<path d="M114.145 118.261C84.0925 113.688 63.2137 98.8539 57.3186 89.862C56.8743 89.1843 56.6693 88.3874 56.7346 87.5797C57.6805 75.8959 71.3806 56.9594 75.9132 53.6703C78.3914 26.5422 95.3475 7.80149 98.6083 4.9183C111.822 6.61048 120.533 19.5507 123.59 24.0917L123.651 24.1832C133.955 21.0379 152.998 23.0037 156.781 24.1832C167.476 10.1605 173.085 5.18041 177.519 3.2146C197.997 17.4995 201.624 46.427 202.537 51.9312C215.752 63.4682 220.866 73.757 221.741 87.7466C221.797 88.6338 221.589 89.5197 221.127 90.279C204.004 118.405 149.036 123.57 114.145 118.261Z" fill="#F0CCFF" stroke="#F0CCFF" stroke-width="4.11666"/>
<path d="M101.827 94.4763C89.0749 106.454 93.0122 114.176 95.8866 115.695C102.608 118.607 124.486 121.613 141.476 122.102C158.356 122.587 169.178 120.294 181.002 116.349C186.489 112.183 171.9 98.0783 167.284 94.0857C166.543 93.0875 165.507 89.555 167.284 83.4098C169.505 75.8586 165.585 69.6093 163.625 67.9168C164.387 59.1858 162.064 49.471 160.253 47.3782C160.159 47.2698 160.017 47.2244 159.878 47.2579C157.139 47.9168 151.452 54.0524 149.644 56.5342C149.414 56.8495 148.984 56.9556 148.632 56.7867C142.041 53.6206 129.134 55.4106 125.538 56.8977C125.255 57.0143 124.932 56.9729 124.7 56.7745C120.649 53.3136 114.193 50.6821 111.435 50.1384C111.235 50.099 111.039 50.1987 110.952 50.3829C108.697 55.171 110.463 64.5112 111.103 69.6093C106.138 72.4736 106.922 81.7173 107.575 84.9722C108.229 88.227 106.123 90.4403 101.827 94.4763Z" fill="white"/>
<path d="M87.1519 112.803C86.3158 108.845 97.4279 97.9481 103.656 92.6536C104.309 93.8253 111.758 92.6536 114.502 92.6536C117.245 92.6536 118.29 94.8669 113.718 97.3405C109.145 99.8142 113.195 100.205 118.29 100.595C123.386 100.986 122.602 103.59 118.29 105.413C109.122 109.288 109.368 115.774 108.322 119.029C99.8474 117.573 89.4899 113.676 87.1519 112.803Z" fill="#E4A8FE"/>
<path d="M116.699 80.6969C113.347 82.2336 109.068 86.2461 107.185 88.357C107.185 87.5759 108.083 86.4041 107.185 82.8889C105.356 75.7283 108.884 71.4319 110.451 69.7394C111.756 67.9166 109.797 63.7505 110.842 65.0524C112.36 66.2647 117.778 70.809 119.498 72.4735C119.782 72.7489 119.727 73.1801 119.405 73.4104L113.493 77.6354C113.325 77.7551 113.375 78.0198 113.572 78.0774C114.495 78.3469 115.852 78.8526 116.89 79.5508C117.33 79.8473 117.181 80.4756 116.699 80.6969Z" fill="#E4A8FE"/>
<path d="M146.903 62.3185C143.511 60.9663 143.601 57.6436 144.153 55.8181C144.223 55.5865 144.466 55.4619 144.7 55.525C145.638 55.7784 147.281 56.2724 148.857 56.8953C149.168 57.0184 149.524 56.9182 149.724 56.6498C153.681 51.3334 157.947 48.2287 160.36 47.2161C162.553 50.0432 164.491 62.0029 163.661 67.5707C163.64 67.7105 163.679 67.8491 163.773 67.9544C164.224 68.4571 164.776 68.9844 165.716 70.3905C167.282 72.734 167.806 76.119 167.414 75.8586C164.115 76.2422 158.278 68.8572 156.964 65.8337C155.265 61.9279 151.476 64.1412 146.903 62.3185Z" fill="#E4A8FE"/>
<path d="M144.681 112.964C144.263 116.088 139.734 120.59 138.21 121.935C149.608 124.556 180.252 118.126 182.211 116.954C182.342 113.048 182.098 110.162 180.052 107.756C177.07 104.248 172.675 99.8809 169.523 96.4032C168.784 95.5875 165.345 96.591 165.102 97.6648C163.357 105.368 158.316 109.911 154.872 107.756C149.254 104.241 145.203 109.058 144.681 112.964Z" fill="#E4A8FE"/>
<path d="M112.499 77.2562C109.136 75.7672 102.411 75.7671 98.3019 81.7237" stroke="#2C1E40" stroke-width="0.686111" stroke-linecap="round"/>
<path d="M158.269 76.2489C163.016 73.2978 174.548 68.4112 182.701 72.4733" stroke="#2C1E40" stroke-width="0.686111" stroke-linecap="round"/>
<path d="M158.922 78.4624C163.582 76.9869 173.529 75.9887 176.037 83.8003" stroke="#2C1E40" stroke-width="0.686111" stroke-linecap="round"/>
<path d="M113.993 73.1608C111.641 70.2965 101.957 65.3125 91.7661 66.8748" stroke="#2C1E40" stroke-width="0.686111" stroke-linecap="round"/>
<path d="M112.125 74.6505C108.389 72.0446 97.5546 69.8108 90.7212 76.64" stroke="#2C1E40" stroke-width="0.686111" stroke-linecap="round"/>
<path d="M159.444 72.9942C163.712 69.3922 175.253 60.6258 180.871 66.8751" stroke="#2C1E40" stroke-width="0.686111" stroke-linecap="round"/>
<ellipse cx="128.937" cy="69.8106" rx="2.2337" ry="2.98876" transform="rotate(90 128.937 69.8106)" fill="#2C1E40"/>
<path d="M134.541 77.2561C136.035 77.2561 139.024 76.1393 139.771 74.6501C140.145 76.1393 142.76 77.2561 144.628 77.6284C147.243 78.1496 141.265 85.4463 139.771 85.8186C135.661 84.7018 131.926 77.2561 134.541 77.2561Z" fill="#F455AC" stroke="#2C1E40" stroke-width="1.37222"/>
<ellipse cx="139.397" cy="72.7886" rx="2.2337" ry="2.98876" transform="rotate(90 139.397 72.7886)" fill="#2C1E40"/>
<ellipse cx="149.111" cy="69.8106" rx="2.2337" ry="2.98876" transform="rotate(90 149.111 69.8106)" fill="#2C1E40"/>
<path d="M160.495 98.3269C160.564 95.4677 163.173 94.6899 164.684 94.756C165.114 94.6872 166.6 94.6604 167.393 94.3226C168.383 93.9004 174.301 92.0307 177.109 93.032C182.147 94.7315 181.395 98.2801 180.215 101.633C179.198 104.523 176.497 103.668 174.686 102.959C174.233 102.781 173.728 102.974 173.462 103.38C171.425 106.485 168.831 105.672 167.267 104.474C166.84 104.147 166.225 104.135 165.761 104.404C164.973 104.859 163.876 105.146 162.929 104.399C161.262 103.083 160.41 101.901 160.495 98.3269Z" fill="white"/>
<path d="M107.884 94.0151C107.596 91.1696 104.935 90.593 103.434 90.774C103 90.7382 101.515 90.8248 100.699 90.5485C99.6792 90.2031 93.6349 88.7901 90.9122 90.0026C86.02 92.0812 87.0419 95.5621 88.4759 98.8157C89.7118 101.62 92.3396 100.56 94.0907 99.7152C94.5286 99.5038 95.0466 99.6578 95.3435 100.043C97.6126 102.983 100.137 101.974 101.605 100.66C102.005 100.302 102.617 100.244 103.101 100.476C103.921 100.869 105.037 101.072 105.924 100.255C107.485 98.8159 108.244 97.5721 107.884 94.0151Z" fill="white"/>
<ellipse cx="126.321" cy="76.5117" rx="1.12079" ry="0.744564" fill="#554074"/>
<ellipse cx="128.937" cy="78.7453" rx="1.49438" ry="0.744567" fill="#554074"/>
<ellipse cx="129.684" cy="76.1394" rx="0.747192" ry="0.372282" fill="#554074"/>
<ellipse cx="152.659" cy="77.9071" rx="1.30652" ry="0.650969" fill="#554074"/>
<ellipse cx="149.485" cy="76.5117" rx="1.12079" ry="0.744564" fill="#554074"/>
<ellipse cx="149.111" cy="79.1174" rx="0.747192" ry="0.372282" fill="#554074"/>
<mask id="path-37-inside-1_767_2813" fill="white">
<path fill-rule="evenodd" clip-rule="evenodd" d="M99.1901 110.103C99.1901 109.332 99.7988 108.704 100.565 108.62C105.345 108.093 108.907 105.956 109.181 103.084C109.536 99.3617 104.233 95.8148 97.3372 95.1617C90.4411 94.5086 84.563 96.9966 84.208 100.719C83.9218 103.719 87.3116 106.606 92.2488 107.954C92.903 108.133 93.3786 108.714 93.3786 109.392V113.854C93.3786 114.649 94.0232 115.293 94.8183 115.293H97.7504C98.5455 115.293 99.1901 114.649 99.1901 113.854V110.103Z"/>
</mask>
<path fill-rule="evenodd" clip-rule="evenodd" d="M99.1901 110.103C99.1901 109.332 99.7988 108.704 100.565 108.62C105.345 108.093 108.907 105.956 109.181 103.084C109.536 99.3617 104.233 95.8148 97.3372 95.1617C90.4411 94.5086 84.563 96.9966 84.208 100.719C83.9218 103.719 87.3116 106.606 92.2488 107.954C92.903 108.133 93.3786 108.714 93.3786 109.392V113.854C93.3786 114.649 94.0232 115.293 94.8183 115.293H97.7504C98.5455 115.293 99.1901 114.649 99.1901 113.854V110.103Z" fill="#2C1E40"/>
<path d="M109.181 103.084L106.449 102.823V102.823L109.181 103.084ZM97.3372 95.1617L97.5959 92.4295L97.3372 95.1617ZM84.208 100.719L81.476 100.458L84.208 100.719ZM92.2488 107.954L91.5256 110.602L92.2488 107.954ZM106.449 102.823C106.421 103.119 106.196 103.719 105.1 104.409C104.018 105.091 102.36 105.661 100.264 105.892L100.866 111.348C103.55 111.052 106.063 110.29 108.026 109.053C109.974 107.825 111.667 105.921 111.913 103.345L106.449 102.823ZM97.0784 97.8939C100.164 98.1861 102.756 99.1187 104.452 100.253C106.252 101.457 106.485 102.446 106.449 102.823L111.913 103.345C112.232 99.9997 109.991 97.3542 107.504 95.6908C104.913 93.9578 101.407 92.7904 97.5959 92.4295L97.0784 97.8939ZM86.94 100.979C86.9761 100.601 87.3933 99.6718 89.3895 98.8269C91.2701 98.0309 93.9931 97.6017 97.0784 97.8939L97.5959 92.4295C93.7852 92.0686 90.1211 92.5569 87.25 93.7722C84.4943 94.9385 81.7949 97.1146 81.476 100.458L86.94 100.979ZM92.972 105.307C90.7961 104.713 89.1253 103.819 88.0891 102.901C87.0313 101.965 86.9108 101.286 86.94 100.979L81.476 100.458C81.219 103.152 82.6503 105.417 84.4502 107.011C86.2716 108.624 88.7643 109.847 91.5256 110.602L92.972 105.307ZM96.123 113.854V109.392H90.6342V113.854H96.123ZM97.7504 112.549H94.8183V118.038H97.7504V112.549ZM96.4456 110.103V113.854H101.935V110.103H96.4456ZM90.6342 113.854C90.6342 116.164 92.5074 118.038 94.8183 118.038V112.549C95.5389 112.549 96.123 113.133 96.123 113.854H90.6342ZM91.5256 110.602C91.075 110.479 90.6342 110.041 90.6342 109.392H96.123C96.123 107.387 94.7311 105.788 92.972 105.307L91.5256 110.602ZM97.7504 118.038C100.061 118.038 101.935 116.164 101.935 113.854H96.4456C96.4456 113.133 97.0298 112.549 97.7504 112.549V118.038ZM100.264 105.892C98.2243 106.116 96.4456 107.818 96.4456 110.103H101.935C101.935 110.846 101.373 111.292 100.866 111.348L100.264 105.892Z" fill="#2C1E40" mask="url(#path-37-inside-1_767_2813)"/>
<mask id="path-39-inside-2_767_2813" fill="white">
<path fill-rule="evenodd" clip-rule="evenodd" d="M172.249 111.972C172.249 111.288 172.731 110.704 173.393 110.531C178.695 109.148 182.365 106.034 181.987 102.895C181.54 99.1822 175.602 96.8394 168.725 97.6617C161.847 98.4841 156.634 102.16 157.081 105.873C157.407 108.585 160.666 110.567 165.08 111.116C165.839 111.211 166.437 111.835 166.437 112.6V118.005C166.437 118.8 167.082 119.444 167.877 119.444H170.809C171.604 119.444 172.249 118.8 172.249 118.005V111.972Z"/>
</mask>
<path fill-rule="evenodd" clip-rule="evenodd" d="M172.249 111.972C172.249 111.288 172.731 110.704 173.393 110.531C178.695 109.148 182.365 106.034 181.987 102.895C181.54 99.1822 175.602 96.8394 168.725 97.6617C161.847 98.4841 156.634 102.16 157.081 105.873C157.407 108.585 160.666 110.567 165.08 111.116C165.839 111.211 166.437 111.835 166.437 112.6V118.005C166.437 118.8 167.082 119.444 167.877 119.444H170.809C171.604 119.444 172.249 118.8 172.249 118.005V111.972Z" fill="#2C1E40"/>
<path d="M181.987 102.895L184.712 102.566L184.712 102.566L181.987 102.895ZM168.725 97.6617L168.399 94.9367L168.725 97.6617ZM157.081 105.873L154.356 106.201L157.081 105.873ZM165.08 111.116L164.741 113.84L165.08 111.116ZM179.263 103.223C179.301 103.542 179.181 104.282 178.011 105.308C176.875 106.304 175.048 107.263 172.7 107.876L174.086 113.187C177.04 112.416 179.699 111.127 181.629 109.435C183.525 107.773 185.052 105.387 184.712 102.566L179.263 103.223ZM169.05 100.387C172.128 100.019 174.86 100.381 176.76 101.131C178.777 101.926 179.217 102.845 179.263 103.223L184.712 102.566C184.311 99.2319 181.558 97.1229 178.775 96.0247C175.874 94.8804 172.199 94.4823 168.399 94.9367L169.05 100.387ZM159.805 105.545C159.76 105.168 159.968 104.174 161.737 102.926C163.405 101.751 165.973 100.755 169.05 100.387L168.399 94.9367C164.598 95.3911 161.121 96.6444 158.574 98.4406C156.129 100.165 153.954 102.865 154.356 106.201L159.805 105.545ZM165.419 108.393C163.499 108.154 162.002 107.62 161.03 106.996C160.053 106.369 159.839 105.826 159.805 105.545L154.356 106.201C154.649 108.632 156.227 110.436 158.065 111.615C159.907 112.797 162.247 113.529 164.741 113.84L165.419 108.393ZM169.182 118.005V112.6H163.693V118.005H169.182ZM170.809 116.7H167.877V122.189H170.809V116.7ZM169.504 111.972V118.005H174.993V111.972H169.504ZM163.693 118.005C163.693 120.315 165.566 122.189 167.877 122.189V116.7C168.597 116.7 169.182 117.284 169.182 118.005H163.693ZM164.741 113.84C164.245 113.778 163.693 113.337 163.693 112.6H169.182C169.182 110.334 167.432 108.643 165.419 108.393L164.741 113.84ZM170.809 122.189C173.12 122.189 174.993 120.315 174.993 118.005H169.504C169.504 117.284 170.088 116.7 170.809 116.7V122.189ZM172.7 107.876C170.916 108.341 169.504 109.952 169.504 111.972H174.993C174.993 112.624 174.546 113.067 174.086 113.187L172.7 107.876Z" fill="#2C1E40" mask="url(#path-39-inside-2_767_2813)"/>
<path d="M53.0643 173.637C49.5672 172.611 48.7086 169.941 48.3149 168.409C48.29 168.313 48.1564 168.314 48.1341 168.411L48.1306 168.426C47.7634 170.029 47.1158 172.854 42.949 173.764C42.839 173.788 42.8435 173.975 42.9549 173.991C46.9204 174.566 47.5716 176.033 48.4851 179.066C48.515 179.165 48.6602 179.156 48.6753 179.054C48.9434 177.234 49.5996 174.491 53.0388 173.981C53.1556 173.964 53.1776 173.67 53.0643 173.637Z" fill="white" fill-opacity="0.87"/>
<path d="M41.91 190.656C37.6358 189.182 36.4292 186.037 35.8663 184.081C35.8122 183.893 35.5529 183.895 35.5054 184.084C34.9776 186.191 33.9797 189.67 28.5236 190.963C28.3023 191.016 28.3135 191.425 28.5383 191.46C33.7489 192.265 34.7393 194.179 35.9939 197.979C36.0576 198.172 36.342 198.15 36.3762 197.949C36.7656 195.662 37.7111 192.451 41.853 191.521C42.0849 191.468 42.1347 190.733 41.91 190.656Z" fill="white" fill-opacity="0.87"/>
<path d="M217.129 184.356C213.652 183.157 212.67 180.599 212.212 179.007C212.169 178.854 211.958 178.856 211.919 179.01C211.49 180.724 210.678 183.554 206.239 184.606C206.059 184.649 206.068 184.982 206.251 185.01C210.49 185.665 211.296 187.222 212.316 190.314C212.368 190.471 212.6 190.453 212.627 190.29C212.944 188.429 213.713 185.817 217.083 185.06C217.272 185.017 217.312 184.419 217.129 184.356Z" fill="white" fill-opacity="0.87"/>
<path d="M241.105 208.833C237.628 207.634 236.647 205.075 236.189 203.483C236.145 203.33 235.934 203.332 235.895 203.486C235.466 205.2 234.654 208.031 230.215 209.083C230.035 209.125 230.044 209.458 230.227 209.486C234.466 210.142 235.272 211.699 236.292 214.79C236.344 214.947 236.576 214.929 236.603 214.766C236.92 212.905 237.689 210.293 241.059 209.536C241.248 209.494 241.288 208.896 241.105 208.833Z" fill="white" fill-opacity="0.87"/>
<path d="M237.317 235.694C230.746 233.429 228.892 228.594 228.026 225.586C227.943 225.297 227.544 225.3 227.471 225.592C226.66 228.83 225.126 234.179 216.738 236.167C216.398 236.247 216.415 236.876 216.761 236.93C224.771 238.168 226.294 241.11 228.222 246.952C228.32 247.249 228.757 247.215 228.81 246.907C229.409 243.39 230.862 238.454 237.23 237.024C237.586 236.944 237.663 235.813 237.317 235.694Z" fill="white" fill-opacity="0.87"/>
<circle cx="118.5" cy="217.5" r="1.5" fill="#2C1E40"/>
</g>
<defs>
<clipPath id="clip0_767_2813">
<rect width="278" height="284" fill="white" transform="translate(0.885376 0.2146)"/>
</clipPath>
</defs>
</svg>
