<svg width="345" height="354" viewBox="0 0 345 354" fill="none" xmlns="http://www.w3.org/2000/svg">
<path d="M109.891 233.031C122.673 228.466 117.499 212.434 113.315 204.988C148.151 206.945 216.227 212.129 209.836 217.216C201.847 223.575 202.499 236.618 214.564 240.531C229.401 246.89 220.923 257.477 220.923 263.357C220.923 269.879 216.281 275.605 234.618 283.901C252.367 291.93 248.966 314.879 246.684 319.933C238.578 337.881 221.575 346.835 165.488 350.911C109.402 354.987 78.4235 328.574 69.9453 314.879C61.4671 301.183 69.9453 284.553 81.8474 278.194C93.7495 271.836 92.7712 267.433 92.2821 254.716C91.7929 241.999 93.9125 238.738 109.891 233.031Z" fill="#F0CCFF" fill-opacity="0.3" stroke="#F0CCFF" stroke-width="1.95651"/>
<path d="M343.694 155.596C343.694 163.46 339.166 171.445 330.577 179.068C322.001 186.679 309.521 193.794 293.997 199.896C262.96 212.096 220.001 220.151 172.499 220.151C124.997 220.151 82.0388 212.096 51.001 199.896C35.4772 193.794 22.9971 186.679 14.4217 179.068C5.83246 171.445 1.30434 163.46 1.30434 155.596C1.30434 147.794 5.76633 141.057 14.2875 135.282C22.8259 129.497 35.2799 124.801 50.8241 121.124C81.8937 113.775 124.9 110.586 172.499 110.586C220.098 110.586 263.105 113.775 294.174 121.124C309.718 124.801 322.172 129.497 330.711 135.282C339.232 141.057 343.694 147.794 343.694 155.596Z" fill="#D90479" stroke="#2C1E40" stroke-width="2.60868"/>
<path d="M140.314 146.264C102.954 143.263 77.6316 122.35 68.4489 111.145C67.5641 110.065 67.1113 108.71 67.2219 107.318C68.5821 90.2001 85.5096 69.4492 91.1322 65.3444C94.2248 31.2865 115.385 7.75858 119.454 4.1389C135.944 6.26335 146.814 22.5092 150.628 28.2101L150.705 28.325C163.564 24.3762 187.328 26.8442 192.048 28.325C205.395 10.7201 212.394 4.46796 217.928 2C243.482 19.9339 247.543 56.2507 248.682 63.161C264.912 77.4164 271.449 92.56 273.009 107.632C273.156 109.056 272.784 110.489 271.954 111.656C247.482 146.042 188.628 150.145 140.314 146.264Z" fill="#F0CCFF" fill-opacity="0.2" stroke="#F0CCFF" stroke-width="1.95651"/>
<path d="M135.668 42.5607C122.614 45.358 115.621 52.3512 105.831 74.7294" stroke="#F0CCFF" stroke-width="5.59457" stroke-linecap="round"/>
<path d="M123.749 114.01C107.836 129.01 112.75 138.681 116.337 140.583C124.725 144.23 152.026 147.994 173.229 148.606C194.293 149.214 207.797 146.342 222.553 141.401C229.401 136.184 211.195 118.521 205.434 113.521C204.51 112.271 203.216 107.847 205.434 100.152C208.205 90.6952 203.314 82.8691 200.868 80.7496C201.817 69.8442 198.935 57.7131 196.678 55.0496C196.552 54.9005 196.355 54.8372 196.166 54.8846C192.761 55.7364 185.769 63.2894 183.468 66.43C183.154 66.8586 182.566 67.0047 182.086 66.7767C173.872 62.875 157.942 65.0756 153.393 66.9279C153.007 67.0849 152.566 67.0284 152.249 66.7583C147.209 62.4583 139.229 59.188 135.777 58.4929C135.505 58.4382 135.237 58.5745 135.121 58.8258C132.331 64.8322 134.529 76.4969 135.325 82.8691C129.13 86.4561 130.108 98.0321 130.923 102.108C131.738 106.184 129.111 108.956 123.749 114.01Z" fill="white" stroke="#2C1E40" stroke-width="1.95651"/>
<path d="M105.396 136.936C104.352 131.979 118.26 118.358 126.032 111.728C126.847 113.195 136.143 111.728 139.567 111.728C142.99 111.728 144.295 114.499 138.588 117.597C132.882 120.695 137.936 121.184 144.295 121.673C150.653 122.162 149.675 125.423 144.295 127.706C132.854 132.56 132.229 140.518 130.924 144.594C120.348 142.771 108.313 138.03 105.396 136.936Z" fill="#F0CCFF" stroke="#2C1E40" stroke-width="1.45877"/>
<path d="M142.198 96.8056C138.033 98.7665 132.766 103.727 130.436 106.347C130.436 105.369 131.557 103.902 130.436 99.4995C128.154 90.5321 132.556 85.1517 134.512 83.0322C136.141 80.7495 133.695 75.5322 134.999 77.1626C136.879 78.669 143.55 84.2831 145.75 86.4067C146.136 86.7795 146.061 87.3604 145.625 87.6732L138.353 92.8882C138.126 93.051 138.193 93.4104 138.461 93.4899C139.581 93.8221 141.186 94.4257 142.446 95.2522C143.048 95.6473 142.85 96.4988 142.198 96.8056Z" fill="#F0CCFF" stroke="#2C1E40" stroke-width="1.45877" stroke-linecap="round"/>
<path d="M180.001 73.7388C175.795 72.0563 175.879 67.9379 176.556 65.6428C176.649 65.3268 176.979 65.1571 177.297 65.2437C178.463 65.5612 180.456 66.1645 182.378 66.9232C182.802 67.0905 183.287 66.9543 183.559 66.5886C188.486 59.962 193.79 56.0907 196.794 54.8258C199.527 58.3625 201.943 73.3113 200.916 80.2936C200.888 80.4831 200.941 80.6713 201.069 80.814C201.628 81.4384 202.315 82.1027 203.477 83.8474C205.431 86.7822 206.086 91.0213 205.597 90.6952C201.479 91.1756 194.196 81.9273 192.555 78.1409C190.436 73.2496 185.708 76.0214 180.001 73.7388Z" fill="#F0CCFF" stroke="#2C1E40" stroke-width="1.45877"/>
<path d="M177.228 137.162C176.706 141.075 171.119 146.192 169.217 147.877C183.44 151.159 225.122 143.509 227.568 142.042C227.731 137.15 223.921 133.654 221.368 130.641C217.796 126.425 212.602 121.218 208.712 116.956C207.703 115.85 202.912 117.236 202.548 118.688C200.235 127.917 194.14 133.275 189.945 130.641C182.934 126.238 177.88 132.271 177.228 137.162Z" fill="#F0CCFF" stroke="#2C1E40" stroke-width="1.45877"/>
<path d="M135.814 93.3039C132.771 92.7604 125.543 93.3365 120.978 99.9886" stroke="#2C1E40" stroke-width="1.30434" stroke-linecap="round"/>
<path d="M194.184 91.1844C200.108 87.4888 214.499 81.3692 224.673 86.4562" stroke="#2C1E40" stroke-width="1.30434" stroke-linecap="round"/>
<path d="M194.999 93.9562C200.814 92.1084 213.227 90.8583 216.358 100.641" stroke="#2C1E40" stroke-width="1.30434" stroke-linecap="round"/>
<path d="M136.956 88.0865C134.021 84.4995 123.912 77.4887 111.195 79.4452" stroke="#2C1E40" stroke-width="1.30434" stroke-linecap="round"/>
<path d="M133.858 88.9017C129.075 87.0539 118.369 85.5431 109.891 91.6735" stroke="#2C1E40" stroke-width="1.30434" stroke-linecap="round"/>
<path d="M195.651 87.1083C200.977 82.5974 215.379 71.6192 222.39 79.4453" stroke="#2C1E40" stroke-width="1.30434" stroke-linecap="round"/>
<path d="M156.684 85.804C157.675 85.804 158.477 84.563 158.477 83.0322C158.477 81.5014 157.675 80.2605 156.684 80.2605C155.693 80.2605 154.891 81.5014 154.891 83.0322C154.891 84.563 155.693 85.804 156.684 85.804Z" fill="#2C1E40"/>
<path d="M182.118 85.8038C183.109 85.8038 183.911 84.5629 183.911 83.0321C183.911 81.5013 183.109 80.2604 182.118 80.2604C181.127 80.2604 180.325 81.5013 180.325 83.0321C180.325 84.5629 181.127 85.8038 182.118 85.8038Z" fill="#2C1E40"/>
<path d="M169.117 92.4887C169.117 92.7604 169.117 93.8582 169.117 96.0756C169.117 99.8256 161.618 107.326 151.509 100.804C145.639 96.7278 147.922 91.1843 149.552 90.6952" stroke="#2C1E40" stroke-width="1.95651" stroke-linecap="round"/>
<path d="M169.28 92.4887C169.28 92.7604 169.28 93.8582 169.28 96.0756C169.28 99.8256 176.78 107.326 186.889 100.804C192.758 96.7278 190.476 91.1843 188.845 90.6952" stroke="#2C1E40" stroke-width="1.95651" stroke-linecap="round"/>
<path d="M169.853 92.6117C169.461 93.1245 168.689 93.1245 168.298 92.6117L164.486 87.6204C163.995 86.9766 164.454 86.0485 165.264 86.0485H172.887C173.697 86.0485 174.156 86.9766 173.664 87.6204L169.853 92.6117Z" fill="#2C1E40"/>
<path d="M196.963 118.833C197.049 115.252 200.305 114.278 202.19 114.361C202.726 114.275 204.581 114.241 205.57 113.818C206.806 113.289 214.192 110.948 217.696 112.202C223.982 114.33 223.044 118.774 221.571 122.974C220.319 126.544 217.021 125.549 214.763 124.669C214.145 124.428 213.46 124.689 213.092 125.24C210.597 128.978 207.448 128.05 205.501 126.597C204.915 126.16 204.077 126.145 203.436 126.498C202.461 127.035 201.143 127.342 200 126.437C197.919 124.789 196.856 123.308 196.963 118.833Z" fill="white" stroke="#2C1E40" stroke-width="1.39864"/>
<path d="M131.308 113.433C130.949 109.87 127.628 109.148 125.755 109.374C125.213 109.329 123.361 109.438 122.342 109.092C121.069 108.659 113.527 106.89 110.129 108.408C104.024 111.011 105.299 115.37 107.089 119.445C108.61 122.909 111.823 121.664 114.007 120.614C114.604 120.327 115.308 120.535 115.717 121.056C118.491 124.592 121.559 123.425 123.389 121.828C123.94 121.348 124.775 121.269 125.44 121.571C126.454 122.032 127.791 122.237 128.862 121.247C130.811 119.445 131.758 117.888 131.308 113.433Z" fill="white" stroke="#2C1E40" stroke-width="1.39864"/>
<path d="M153.749 92.6517C154.379 92.6517 154.89 92.4327 154.89 92.1626C154.89 91.8925 154.379 91.6735 153.749 91.6735C153.119 91.6735 152.608 91.8925 152.608 92.1626C152.608 92.4327 153.119 92.6517 153.749 92.6517Z" fill="#554074"/>
<path d="M156.032 96.2387C157.023 96.2387 157.825 95.8737 157.825 95.4235C157.825 94.9733 157.023 94.6083 156.032 94.6083C155.041 94.6083 154.239 94.9733 154.239 95.4235C154.239 95.8737 155.041 96.2387 156.032 96.2387Z" fill="#554074"/>
<path d="M159.13 92.6517C159.49 92.6517 159.782 92.4327 159.782 92.1626C159.782 91.8925 159.49 91.6735 159.13 91.6735C158.77 91.6735 158.478 91.8925 158.478 92.1626C158.478 92.4327 158.77 92.6517 159.13 92.6517Z" fill="#554074"/>
<path d="M178.369 92.6517C179.269 92.6517 179.999 92.2867 179.999 91.8365C179.999 91.3862 179.269 91.0212 178.369 91.0212C177.469 91.0212 176.739 91.3862 176.739 91.8365C176.739 92.2867 177.469 92.6517 178.369 92.6517Z" fill="#554074"/>
<path d="M183.26 91.9995C183.8 91.9995 184.238 91.7805 184.238 91.5104C184.238 91.2402 183.8 91.0212 183.26 91.0212C182.72 91.0212 182.282 91.2402 182.282 91.5104C182.282 91.7805 182.72 91.9995 183.26 91.9995Z" fill="#554074"/>
<path d="M180.977 95.2604C181.517 95.2604 181.955 95.1145 181.955 94.9344C181.955 94.7543 181.517 94.6083 180.977 94.6083C180.437 94.6083 179.999 94.7543 179.999 94.9344C179.999 95.1145 180.437 95.2604 180.977 95.2604Z" fill="#554074"/>
<path fill-rule="evenodd" clip-rule="evenodd" d="M120.652 135.946C120.652 134.912 121.458 134.066 122.483 133.927C128.15 133.162 132.316 130.544 132.647 127.067C133.09 122.406 126.473 117.964 117.867 117.146C109.261 116.328 101.926 119.444 101.483 124.105C101.13 127.818 105.257 131.392 111.3 133.106C112.184 133.357 112.826 134.144 112.826 135.062V145.151C112.826 146.232 113.702 147.108 114.782 147.108H118.695C119.776 147.108 120.652 146.232 120.652 145.151V135.946Z" fill="#554074"/>
<mask id="mask0_415_3566" style="mask-type:luminance" maskUnits="userSpaceOnUse" x="101" y="117" width="32" height="31">
<path fill-rule="evenodd" clip-rule="evenodd" d="M120.652 135.946C120.652 134.912 121.458 134.066 122.483 133.927C128.15 133.162 132.316 130.544 132.647 127.067C133.09 122.406 126.473 117.964 117.867 117.146C109.261 116.328 101.926 119.444 101.483 124.105C101.13 127.818 105.257 131.392 111.3 133.106C112.184 133.357 112.826 134.144 112.826 135.062V145.151C112.826 146.232 113.702 147.108 114.782 147.108H118.695C119.776 147.108 120.652 146.232 120.652 145.151V135.946Z" fill="#2C1E40"/>
</mask>
<g mask="url(#mask0_415_3566)">
<path d="M130.699 126.882C130.608 127.838 129.974 128.899 128.487 129.882C127.005 130.863 124.848 131.634 122.221 131.989L122.745 135.866C125.785 135.455 128.546 134.535 130.646 133.146C132.741 131.76 134.355 129.773 134.595 127.252L130.699 126.882ZM117.682 119.094C121.725 119.478 125.204 120.709 127.56 122.29C129.988 123.92 130.82 125.605 130.699 126.882L134.595 127.252C134.916 123.868 132.662 121.002 129.741 119.041C126.747 117.031 122.615 115.632 118.052 115.198L117.682 119.094ZM103.431 124.29C103.552 123.014 104.687 121.515 107.379 120.372C109.99 119.263 113.639 118.71 117.682 119.094L118.052 115.198C113.49 114.765 109.168 115.361 105.849 116.77C102.611 118.146 99.857 120.536 99.5353 123.92L103.431 124.29ZM111.834 131.224C109.02 130.426 106.769 129.224 105.303 127.902C103.825 126.569 103.334 125.309 103.431 124.29L99.5353 123.92C99.2793 126.614 100.675 128.998 102.683 130.808C104.703 132.63 107.537 134.072 110.766 134.988L111.834 131.224ZM114.782 145.151V135.062H110.869V145.151H114.782ZM118.695 145.151H114.782V149.064H118.695V145.151ZM118.695 135.946V145.151H122.608V135.946H118.695ZM110.869 145.151C110.869 147.313 112.621 149.064 114.782 149.064V145.151H110.869ZM110.766 134.988C110.811 135.001 110.843 135.026 110.859 135.047C110.867 135.056 110.869 135.062 110.87 135.063C110.87 135.064 110.871 135.064 110.87 135.063C110.87 135.062 110.869 135.061 110.869 135.062H114.782C114.782 133.199 113.49 131.693 111.834 131.224L110.766 134.988ZM118.695 149.064C120.857 149.064 122.608 147.313 122.608 145.151H118.695V149.064ZM122.221 131.989C120.316 132.246 118.695 133.845 118.695 135.946H122.608C122.608 135.944 122.609 135.944 122.608 135.946C122.609 135.945 122.612 135.938 122.623 135.926C122.646 135.9 122.689 135.874 122.745 135.866L122.221 131.989Z" fill="#2C1E40"/>
</g>
<path fill-rule="evenodd" clip-rule="evenodd" d="M211.955 138.155C211.955 137.243 212.589 136.459 213.466 136.204C219.709 134.389 223.959 130.625 223.503 126.83C222.946 122.181 215.536 119.247 206.953 120.277C198.37 121.307 191.864 125.911 192.422 130.56C192.827 133.932 196.836 136.402 202.284 137.111C203.314 137.245 204.129 138.094 204.129 139.133V149.391C204.129 150.471 205.005 151.347 206.086 151.347H209.999C211.079 151.347 211.955 150.471 211.955 149.391V138.155Z" fill="#554074"/>
<mask id="mask1_415_3566" style="mask-type:luminance" maskUnits="userSpaceOnUse" x="192" y="120" width="32" height="32">
<path fill-rule="evenodd" clip-rule="evenodd" d="M211.955 138.155C211.955 137.243 212.589 136.459 213.466 136.204C219.709 134.389 223.959 130.625 223.503 126.83C222.946 122.181 215.536 119.247 206.953 120.277C198.37 121.307 191.864 125.911 192.422 130.56C192.827 133.932 196.836 136.402 202.284 137.111C203.314 137.245 204.129 138.094 204.129 139.133V149.391C204.129 150.471 205.005 151.347 206.086 151.347H209.999C211.079 151.347 211.955 150.471 211.955 149.391V138.155Z" fill="#2C1E40"/>
</mask>
<g mask="url(#mask1_415_3566)">
<path d="M221.561 127.063C221.686 128.104 221.199 129.415 219.672 130.819C218.162 132.208 215.831 133.479 212.919 134.326L214.012 138.083C217.344 137.114 220.259 135.595 222.321 133.699C224.366 131.819 225.776 129.351 225.446 126.597L221.561 127.063ZM207.186 122.22C211.218 121.736 214.88 122.199 217.517 123.243C220.236 124.32 221.408 125.79 221.561 127.063L225.446 126.597C225.041 123.222 222.229 120.9 218.958 119.605C215.605 118.278 211.27 117.789 206.72 118.335L207.186 122.22ZM194.365 130.327C194.212 129.053 195.003 127.348 197.39 125.658C199.706 124.02 203.153 122.704 207.186 122.22L206.72 118.335C202.169 118.881 198.073 120.381 195.129 122.464C192.258 124.497 190.075 127.417 190.48 130.793L194.365 130.327ZM202.536 135.171C200.017 134.843 197.954 134.121 196.529 133.194C195.102 132.266 194.476 131.255 194.365 130.327L190.48 130.793C190.773 133.237 192.354 135.146 194.395 136.474C196.438 137.803 199.103 138.67 202.031 139.051L202.536 135.171ZM206.086 149.391V139.133H202.173V149.391H206.086ZM209.999 149.391H206.086V153.304H209.999V149.391ZM209.999 138.155V149.391H213.912V138.155H209.999ZM202.173 149.391C202.173 151.552 203.925 153.304 206.086 153.304V149.391H202.173ZM202.031 139.051C202.089 139.059 202.133 139.086 202.158 139.113C202.169 139.125 202.173 139.133 202.173 139.134C202.173 139.134 202.173 139.134 202.173 139.133C202.173 139.131 202.173 139.131 202.173 139.133H206.086C206.086 137.019 204.448 135.42 202.536 135.171L202.031 139.051ZM209.999 153.304C212.16 153.304 213.912 151.552 213.912 149.391H209.999V153.304ZM212.919 134.326C211.275 134.804 209.999 136.305 209.999 138.155H213.912C213.912 138.155 213.912 138.155 213.912 138.156C213.911 138.156 213.912 138.157 213.912 138.156C213.912 138.155 213.914 138.15 213.922 138.14C213.938 138.12 213.968 138.096 214.012 138.083L212.919 134.326Z" fill="#2C1E40"/>
</g>
<path d="M271.689 95.4991C287.842 100.623 301.017 106.917 310.248 113.972C319.949 121.386 325.107 129.486 325.107 137.815C325.107 145.243 321.009 152.484 313.231 159.232C305.457 165.976 294.131 172.11 280.023 177.287C251.817 187.637 212.765 194.064 169.565 194.064C126.365 194.064 87.3123 187.637 59.1065 177.287C44.9985 172.11 33.6729 165.976 25.8985 159.232C18.1207 152.484 14.0225 145.243 14.0225 137.815C14.0225 129.264 19.4599 120.955 29.6603 113.386C39.3376 106.204 53.1204 99.8343 69.9656 94.715C68.3885 98.6456 67.2513 102.522 66.8872 106.004C66.7008 107.786 67.2974 109.5 68.408 110.824L271.689 95.4991ZM271.689 95.4991C272.633 98.7399 273.261 102.323 273.595 106.474L273.595 106.474C273.716 107.982 273.377 109.513 272.549 110.823C262.849 126.165 241.8 136.664 217.448 142.413C193.028 148.179 164.963 149.25 140.83 145.462C101.214 139.246 77.6473 121.849 68.4082 110.824L271.689 95.4991Z" fill="#F455AC" stroke="#2C1E40" stroke-width="2.61"/>
<path d="M138.932 145.128C101.5 139.459 75.4536 121.116 67.9774 109.918C67.3635 108.998 67.0827 107.913 67.18 106.811C68.4643 92.2646 85.4943 68.8496 91.1412 64.7714C94.239 31.0216 115.435 7.70649 119.511 4.11955C136.029 6.22478 146.917 22.3236 150.738 27.9729L150.815 28.0868C163.695 24.1738 187.499 26.6194 192.228 28.0868C205.597 10.6413 212.608 4.44564 218.151 2C243.749 19.7717 248.283 55.76 249.424 62.6078C265.89 76.9155 272.295 89.6802 273.419 107.001C273.498 108.211 273.214 109.421 272.577 110.454C251.077 145.324 182.489 151.724 138.932 145.128Z" fill="#F0CCFF" fill-opacity="0.2" stroke="#F0CCFF" stroke-width="2.79728"/>
<path d="M60.3804 146.639C68.5807 150.624 76.5303 151.175 78.1361 147.87C79.742 144.566 74.3961 138.656 66.1958 134.671C57.9954 130.686 50.0459 130.135 48.44 133.44C46.8342 136.744 52.18 142.654 60.3804 146.639Z" fill="white" fill-opacity="0.87"/>
<path d="M123.589 172.633C132.555 174.285 140.363 172.695 141.029 169.081C141.695 165.468 134.966 161.199 125.999 159.547C117.033 157.895 109.225 159.485 108.559 163.099C107.893 166.712 114.622 170.981 123.589 172.633Z" fill="white" fill-opacity="0.87"/>
<path d="M278.229 148.682C270.029 152.666 262.079 153.218 260.474 149.913C258.868 146.609 264.214 140.699 272.414 136.714C280.614 132.729 288.564 132.178 290.17 135.483C291.776 138.787 286.43 144.697 278.229 148.682Z" fill="white" fill-opacity="0.87"/>
<path d="M209.875 175.283C200.851 176.585 193.111 174.692 192.586 171.056C192.061 167.419 198.951 163.416 207.975 162.114C216.999 160.812 224.739 162.704 225.264 166.341C225.789 169.977 218.899 173.981 209.875 175.283Z" fill="white" fill-opacity="0.87"/>
<path d="M62.4988 215.385C58.2656 214.085 57.194 210.823 56.7025 208.916C56.6686 208.785 56.4871 208.786 56.4568 208.918C55.9999 210.919 55.1844 214.411 50.0725 215.563C49.9233 215.597 49.929 215.854 50.0803 215.877C54.9394 216.601 55.7633 218.426 56.8898 222.172C56.9304 222.307 57.1282 222.295 57.1489 222.156C57.4848 219.9 58.3093 216.554 62.4616 215.873C62.6199 215.847 62.6521 215.432 62.4988 215.385Z" fill="white" fill-opacity="0.87"/>
<path d="M48.4398 236.642C43.3689 234.78 41.8788 230.989 41.1789 228.575C41.1048 228.32 40.7529 228.323 40.6881 228.58C40.0298 231.203 38.7599 235.444 32.1616 237.079C31.8617 237.153 31.8755 237.719 32.1805 237.768C38.4975 238.785 39.7492 241.158 41.288 245.819C41.3747 246.081 41.7618 246.051 41.809 245.779C42.2959 242.971 43.4711 239.11 48.3618 237.881C48.6751 237.802 48.743 236.753 48.4398 236.642Z" fill="white" fill-opacity="0.87"/>
<path d="M267.146 228.77C263.021 227.255 261.808 224.171 261.239 222.207C261.179 221.999 260.892 222.002 260.84 222.212C260.304 224.345 259.271 227.796 253.903 229.125C253.659 229.186 253.67 229.646 253.918 229.686C259.057 230.514 260.076 232.444 261.328 236.236C261.398 236.45 261.713 236.425 261.752 236.203C262.148 233.919 263.104 230.778 267.083 229.778C267.337 229.714 267.393 228.861 267.146 228.77Z" fill="white" fill-opacity="0.87"/>
<path d="M297.066 259.422C292.941 257.907 291.728 254.823 291.159 252.859C291.099 252.651 290.812 252.654 290.76 252.864C290.224 254.997 289.191 258.448 283.823 259.778C283.579 259.838 283.59 260.298 283.838 260.338C288.977 261.166 289.996 263.096 291.248 266.888C291.318 267.102 291.633 267.077 291.671 266.855C292.068 264.571 293.024 261.43 297.003 260.43C297.257 260.366 297.313 259.513 297.066 259.422Z" fill="white" fill-opacity="0.87"/>
<path d="M292.151 292.995C284.355 290.131 282.064 284.305 280.988 280.593C280.874 280.201 280.333 280.205 280.234 280.601C279.222 284.634 277.27 291.154 267.126 293.666C266.665 293.78 266.686 294.649 267.155 294.725C276.866 296.289 278.791 299.937 281.156 307.102C281.289 307.506 281.885 307.459 281.957 307.04C282.706 302.724 284.512 296.788 292.031 294.899C292.512 294.778 292.617 293.166 292.151 292.995Z" fill="white" fill-opacity="0.87"/>
<path d="M171.962 315.756C171.636 315.603 171.247 315.743 171.094 316.069C170.94 316.394 171.08 316.783 171.406 316.936L171.962 315.756ZM188.26 337.216C188.26 339.137 189.817 340.694 191.738 340.694C193.659 340.694 195.216 339.137 195.216 337.216C195.216 335.295 193.659 333.737 191.738 333.737C189.817 333.737 188.26 335.295 188.26 337.216ZM171.406 316.936C172.189 317.305 173.277 318.218 173.854 319.74C174.423 321.244 174.521 323.414 173.208 326.352L174.399 326.884C175.825 323.691 175.787 321.161 175.074 319.278C174.368 317.415 173.027 316.257 171.962 315.756L171.406 316.936ZM173.208 326.352C172.508 327.919 172.053 329.34 171.851 330.568C171.652 331.785 171.693 332.872 172.053 333.726C172.43 334.619 173.139 335.209 174.119 335.4C175.056 335.583 176.188 335.392 177.467 334.888L176.988 333.674C175.821 334.135 174.96 334.235 174.368 334.12C173.82 334.013 173.465 333.716 173.255 333.219C173.028 332.682 172.959 331.874 173.139 330.779C173.317 329.693 173.729 328.382 174.399 326.884L173.208 326.352ZM177.467 334.888C179.481 334.092 182.588 333.292 185.361 333.44C186.743 333.514 187.998 333.821 188.991 334.44C189.968 335.049 190.728 335.979 191.109 337.386L192.368 337.045C191.901 335.322 190.939 334.117 189.681 333.333C188.44 332.56 186.948 332.219 185.431 332.138C182.405 331.976 179.104 332.839 176.988 333.674L177.467 334.888Z" fill="#2C1E40"/>
<path fill-rule="evenodd" clip-rule="evenodd" d="M145.859 274.699C146.654 269.548 149.831 261.91 157.173 267.76C157.216 267.729 157.261 267.697 157.306 267.664C159.642 265.991 164.489 262.518 171.847 269.716C177.228 274.98 176.39 281.447 174.833 284.917C179.459 288.707 182.517 293.817 182.119 300.694C180.814 323.194 159.396 319.492 152.771 311.292C147.282 304.498 137.282 287.585 141.195 274.281C142.17 274.33 143.799 274.452 145.859 274.699Z" fill="white" fill-opacity="0.87"/>
<path d="M157.173 267.76L156.564 268.525L157.141 268.985L157.742 268.556L157.173 267.76ZM145.859 274.699L145.742 275.67L146.681 275.783L146.825 274.848L145.859 274.699ZM174.833 284.917L173.94 284.516L173.634 285.199L174.213 285.674L174.833 284.917ZM141.195 274.281L141.244 273.304L140.474 273.266L140.256 274.005L141.195 274.281ZM157.783 266.994C155.85 265.455 154.072 264.705 152.438 264.674C150.775 264.642 149.419 265.356 148.367 266.415C146.33 268.464 145.298 271.921 144.892 274.549L146.825 274.848C147.215 272.326 148.169 269.389 149.754 267.794C150.514 267.03 151.379 266.61 152.4 266.63C153.452 266.65 154.825 267.139 156.564 268.525L157.783 266.994ZM156.736 266.869C156.691 266.902 156.647 266.933 156.605 266.963L157.742 268.556C157.786 268.524 157.831 268.492 157.876 268.46L156.736 266.869ZM172.531 269.017C168.715 265.283 165.403 264.184 162.622 264.388C159.895 264.588 157.897 266.037 156.736 266.869L157.876 268.46C159.051 267.618 160.645 266.494 162.765 266.339C164.831 266.188 167.622 266.951 171.163 270.415L172.531 269.017ZM175.725 285.317C177.389 281.61 178.299 274.66 172.531 269.017L171.163 270.415C176.157 275.301 175.391 281.284 173.94 284.516L175.725 285.317ZM183.095 300.751C183.516 293.496 180.266 288.104 175.453 284.16L174.213 285.674C178.652 289.311 181.519 294.138 181.142 300.637L183.095 300.751ZM152.01 311.907C155.545 316.282 162.899 319.381 169.572 318.475C172.947 318.016 176.186 316.528 178.659 313.63C181.126 310.739 182.76 306.529 183.095 300.751L181.142 300.637C180.825 306.109 179.293 309.874 177.17 312.36C175.054 314.84 172.279 316.133 169.309 316.536C163.29 317.353 156.622 314.502 153.532 310.677L152.01 311.907ZM140.256 274.005C138.209 280.966 139.819 288.769 142.549 295.592C145.287 302.435 149.213 308.445 152.01 311.907L153.532 310.677C150.84 307.346 147.021 301.503 144.365 294.865C141.701 288.206 140.268 280.901 142.133 274.557L140.256 274.005ZM145.975 273.727C143.894 273.478 142.243 273.354 141.244 273.304L141.146 275.258C142.098 275.306 143.704 275.426 145.742 275.67L145.975 273.727Z" fill="#2C1E40"/>
<path d="M153.26 273.792C155.217 268.738 161.477 260.683 170.869 268.901C182.608 279.173 172.499 296.292 158.477 290.586" stroke="#2C1E40" stroke-width="1.95651" stroke-linecap="round"/>
<path d="M141.195 277.868V273.955C141.684 273.955 142.891 274.118 143.804 274.77C144.717 275.423 142.445 277.107 141.195 277.868Z" fill="#2C1E40"/>
<path d="M146.808 281.18C147.387 281.43 148.29 280.627 148.826 279.387C149.361 278.147 149.326 276.94 148.748 276.69C148.169 276.44 147.266 277.243 146.73 278.483C146.195 279.723 146.23 280.93 146.808 281.18Z" fill="#2C1E40"/>
<path d="M157.173 267.553C153.958 264.852 147.175 262.905 145.76 274.281" stroke="#2C1E40" stroke-width="1.95651" stroke-linecap="round"/>
</svg>
