<svg width="52" height="48" viewBox="0 0 52 48" fill="none" xmlns="http://www.w3.org/2000/svg">
<path fill-rule="evenodd" clip-rule="evenodd" d="M9.98734 13.2337C10.9213 10.4194 12.8234 5.57511 15.294 2.82086C15.863 2.18657 16.8356 2.24172 17.3919 2.88699C18.8735 4.60567 20.8206 7.33238 23.2332 11.4106C24.4446 11.4942 25.6753 11.6392 26.9181 11.8479C29.294 8.01252 34.413 1.56911 39.7353 0.299581C39.8077 0.282311 39.8902 0.261147 39.9798 0.238126C40.6504 0.0660018 41.7252 -0.209903 42.0086 0.262098C43.5131 2.76797 45.0894 8.28132 44.5539 19.7319C50.2549 24.5638 53.1419 30.7784 51.579 36.5126C49.0193 45.9042 35.4922 50.4505 21.3653 46.667C7.23837 42.8835 -2.1387 32.203 0.420988 22.8114C1.60504 18.4671 5.1359 15.1595 9.98734 13.2337Z" fill="#E4A8FE"/>
<g clip-path="url(#clip0_415_3250)">
<path d="M19.18 26.64C19.264 26.7412 19.3671 26.8249 19.4834 26.8863C19.5997 26.9476 19.7271 26.9854 19.858 26.9975C19.989 27.0096 20.1211 26.9957 20.2467 26.9567C20.3723 26.9176 20.489 26.8542 20.59 26.77L24.95 23.14V35C24.95 35.2652 25.0554 35.5195 25.2429 35.7071C25.4304 35.8946 25.6848 36 25.95 36C26.2152 36 26.4696 35.8946 26.6571 35.7071C26.8446 35.5195 26.95 35.2652 26.95 35V23.14L31.31 26.77C31.4111 26.854 31.5278 26.9173 31.6534 26.9563C31.779 26.9952 31.911 27.0091 32.0419 26.997C32.1729 26.9849 32.3001 26.9472 32.4165 26.8859C32.5328 26.8247 32.636 26.7411 32.72 26.64C32.804 26.5389 32.8674 26.4222 32.9063 26.2966C32.9453 26.171 32.9591 26.039 32.947 25.9081C32.935 25.7771 32.8972 25.6499 32.836 25.5335C32.7747 25.4172 32.6911 25.314 32.59 25.23L26.59 20.23L26.44 20.14L26.31 20.07C26.0783 19.9806 25.8217 19.9806 25.59 20.07L25.46 20.14L25.31 20.23L19.31 25.23C19.2087 25.3139 19.125 25.417 19.0637 25.5334C19.0023 25.6497 18.9645 25.777 18.9525 25.908C18.9404 26.039 18.9543 26.1711 18.9933 26.2967C19.0324 26.4223 19.0958 26.5389 19.18 26.64Z" fill="#2C1E40"/>
</g>
<defs>
<clipPath id="clip0_415_3250">
<rect width="24" height="24" fill="white" transform="translate(13.95 16)"/>
</clipPath>
</defs>
</svg>
