<svg width="126" height="48" viewBox="0 0 126 48" fill="none" xmlns="http://www.w3.org/2000/svg">
<path d="M57.7708 40.8447C50.4573 55.0286 43.5273 38.3714 43.5273 24.5428" stroke="#F455AC" stroke-width="1.2" stroke-linecap="round"/>
<path d="M54.4837 31.0063C51.0568 30.0737 47.2423 31.4798 44.5357 33.0253" stroke="#F455AC" stroke-width="1.2" stroke-linecap="round"/>
<path d="M55.4973 22.9714C52.3 22.1015 46.4956 23.5678 43.6766 24.983" stroke="#F455AC" stroke-width="1.2" stroke-linecap="round"/>
<path d="M59.8799 24.9938L61.5233 46.3105" stroke="#F455AC" stroke-width="1.2" stroke-linecap="round"/>
<path d="M57.6885 27.7268C58.2364 24.8117 60.7564 19.856 66.4538 23.3541C73.5755 27.7268 65.906 40.2982 59.8799 41.3913" stroke="#F455AC" stroke-width="1.2" stroke-linecap="round"/>
<path d="M61.5234 40.8447C63.3495 42.4844 67.659 45.764 70.2885 45.764" stroke="#F455AC" stroke-width="1.2" stroke-linecap="round"/>
<path d="M73.0278 45.764C72.6759 40.673 72.1883 30.0679 72.9373 26.9543C72.9734 26.804 73.1539 26.7606 73.2588 26.8742C75.0078 28.7673 78.603 34.1993 80.6973 44.1242C80.1625 37.7207 78.5832 28.7121 80.0382 23.2023C80.0817 23.0375 80.2895 22.9976 80.386 23.1383C82.2242 25.8188 86.8444 34.7927 89.4625 45.764" stroke="#F455AC" stroke-width="1.2" stroke-linecap="round" stroke-linejoin="round"/>
<path d="M90.0103 24.9938L91.6538 45.2174" stroke="#F455AC" stroke-width="1.2" stroke-linecap="round"/>
<path d="M94.3929 45.2174C94.0373 40.6055 93.751 30.571 95.3538 26.4122C95.4109 26.2642 95.6023 26.2405 95.6931 26.3706C97.6155 29.1246 103.726 39.9765 104.254 45.764C104.254 40.9541 104.619 29.1842 104.802 23.9006" stroke="#F455AC" stroke-width="1.2" stroke-linecap="round" stroke-linejoin="round"/>
<path d="M108.089 24.4472V45.2174" stroke="#F455AC" stroke-width="1.2" stroke-linecap="round"/>
<path d="M111.923 46.8571C111.203 41.2842 110.731 28.6159 114.508 21.9792C114.581 21.8508 114.757 21.843 114.841 21.9652C116.733 24.7595 122.916 37.3065 123.976 45.764" stroke="#F455AC" stroke-width="1.2" stroke-linecap="round"/>
<path d="M110.828 44.1738C113.019 43.4451 118.826 42.0968 124.523 42.5342" stroke="#F455AC" stroke-width="1.2" stroke-linecap="round"/>
<path opacity="0.9" d="M25.898 6.75994L25.4024 7.04626L25.549 7.29888L25.8401 7.32843L25.898 6.75994ZM27.1143 6.92456L27.0186 7.48796L27.4 7.55242L27.6024 7.22358L27.1143 6.92456ZM18.3353 7.84779L18.5786 8.36508L18.808 8.25767L18.8826 8.01604L18.3353 7.84779ZM14.9461 17.1549L15.0431 17.7181L15.8199 17.5849L15.4531 16.8889L14.9461 17.1549ZM35.1708 23.3072L34.9182 22.7944L34.1888 23.1521L34.7718 23.717L35.1708 23.3072ZM35.6648 10.7719L35.0926 10.7454L35.0797 11.0246L35.2926 11.2062L35.6648 10.7719ZM25.8401 7.32843C26.2294 7.36798 26.6225 7.42102 27.0186 7.48796L27.2099 6.36116C26.7891 6.29002 26.3708 6.23356 25.9561 6.19145L25.8401 7.32843ZM22.4857 2.70144C23.2237 3.57808 24.196 4.9673 25.4024 7.04626L26.3938 6.47363C25.1683 4.36172 24.1586 2.91155 23.3628 1.9664L22.4857 2.70144ZM21.4859 2.66961C21.746 2.36618 22.2121 2.37631 22.4857 2.70144L23.3628 1.9664C22.6912 1.16866 21.3915 1.02146 20.6154 1.92678L21.4859 2.66961ZM19.8063 5.5362C20.2599 4.50353 20.8316 3.43284 21.4859 2.66961L20.6154 1.92678C19.8519 2.81743 19.2265 4.00906 18.7572 5.07744L19.8063 5.5362ZM18.8826 8.01604C19.0675 7.41752 19.3845 6.49625 19.8063 5.5362L18.7572 5.07744C18.314 6.08639 17.9823 7.05008 17.7879 7.67953L18.8826 8.01604ZM14.8203 12.4237C15.2923 10.6811 16.6319 9.27665 18.5786 8.36508L18.0919 7.3305C15.9241 8.3456 14.2958 9.97899 13.7146 12.1256L14.8203 12.4237ZM15.4531 16.8889C14.6693 15.4015 14.43 13.8656 14.8203 12.4237L13.7146 12.1256C13.2348 13.8974 13.5481 15.7297 14.4393 17.4208L15.4531 16.8889ZM3.2009 27.0893C4.52913 22.1842 9.1287 18.7321 15.0431 17.7181L14.8492 16.5918C8.63768 17.6567 3.57321 21.3326 2.0951 26.7911L3.2009 27.0893ZM17.4897 45.6313C7.40735 42.9135 1.18739 34.5249 3.2009 27.0893L2.0951 26.7911C-0.151438 35.0874 6.78457 43.9295 17.191 46.7346L17.4897 45.6313ZM39.1933 36.7914C37.1797 44.2271 27.5721 48.3491 17.4897 45.6313L17.191 46.7346C27.5973 49.5398 38.0526 45.3857 40.2992 37.0895L39.1933 36.7914ZM34.7718 23.717C38.6329 27.4594 40.413 32.287 39.1933 36.7914L40.2992 37.0895C41.6557 32.0794 39.6421 26.8443 35.5699 22.8973L34.7718 23.717ZM38.5179 18.8117C38.0589 20.5069 36.7792 21.8814 34.9182 22.7944L35.4235 23.82C37.5025 22.8001 39.0584 21.1973 39.6237 19.1097L38.5179 18.8117ZM35.2926 11.2062C37.9657 13.4866 39.1955 16.3094 38.5179 18.8117L39.6237 19.1097C40.4616 16.0157 38.8918 12.773 36.0369 10.3375L35.2926 11.2062ZM36.2369 10.7983C36.4982 5.17394 35.7389 2.34641 34.9228 0.978513L33.9386 1.563C34.5815 2.6408 35.3506 5.19422 35.0926 10.7454L36.2369 10.7983ZM34.9228 0.978513C34.7858 0.748753 34.5707 0.647652 34.405 0.605907C34.2449 0.565574 34.0857 0.567445 33.9626 0.577513C33.7163 0.597627 33.4556 0.666584 33.3035 0.705876L33.5907 1.81224C33.7636 1.76754 33.9261 1.72718 34.0561 1.71656C34.1209 1.71126 34.1382 1.7174 34.1246 1.71399C34.1053 1.70915 34.0069 1.6776 33.9386 1.563L34.9228 0.978513ZM33.3035 0.705876C33.2587 0.717461 33.2238 0.726447 33.1945 0.733498L33.4625 1.84462C33.5033 1.83481 33.5485 1.82313 33.5907 1.81224L33.3035 0.705876ZM33.1945 0.733498C31.7488 1.08058 30.3911 2.11211 29.2783 3.2356C28.1542 4.37048 27.2198 5.66105 26.6262 6.62554L27.6024 7.22358C28.1607 6.31643 29.0431 5.09899 30.093 4.03891C31.1543 2.96744 32.3278 2.11706 33.4625 1.84462L33.1945 0.733498Z" fill="#F455AC"/>
<path d="M47.6667 9.33193C43.6242 8.25637 39.6745 10.6274 37.4305 12.6295" stroke="#F455AC" stroke-width="0.817532" stroke-linecap="round"/>
<path d="M45.6299 16.6478C43.7779 14.3381 40.994 14.3527 38.8553 14.9434" stroke="#F455AC" stroke-width="0.817532" stroke-linecap="round"/>
<path d="M41.5563 21.9313C41.3756 20.3083 40.351 19.1937 39.2194 18.4766" stroke="#F455AC" stroke-width="0.817532" stroke-linecap="round"/>
<path d="M11.4115 7.29984C12.684 6.87664 14.4855 8.03704 15.9629 9.3472" stroke="#F455AC" stroke-width="0.817532" stroke-linecap="round"/>
<path d="M4.07898 13.8027C7.88081 11.0632 11.6598 11.1349 14.4401 12.0041" stroke="#F455AC" stroke-width="0.817532" stroke-linecap="round"/>
<path d="M9.40332 16.7984C10.5466 15.2015 12.559 14.4448 14.1738 14.1356" stroke="#F455AC" stroke-width="0.817532" stroke-linecap="round"/>
</svg>
