<svg width="52" height="48" viewBox="0 0 52 48" fill="none" xmlns="http://www.w3.org/2000/svg">
<path fill-rule="evenodd" clip-rule="evenodd" d="M9.98734 13.2337C10.9213 10.4194 12.8234 5.57511 15.294 2.82086C15.863 2.18657 16.8356 2.24172 17.3919 2.88699C18.8735 4.60567 20.8206 7.33238 23.2332 11.4106C24.4446 11.4942 25.6753 11.6392 26.9181 11.8479C29.294 8.01252 34.413 1.56911 39.7353 0.299581C39.8077 0.282311 39.8902 0.261147 39.9798 0.238126C40.6504 0.0660018 41.7252 -0.209903 42.0086 0.262098C43.5131 2.76797 45.0894 8.28132 44.5539 19.7319C50.2549 24.5638 53.1419 30.7784 51.579 36.5126C49.0193 45.9042 35.4922 50.4505 21.3653 46.667C7.23837 42.8835 -2.1387 32.203 0.420988 22.8114C1.60504 18.4671 5.1359 15.1595 9.98734 13.2337Z" fill="#E4A8FE"/>
<g clip-path="url(#clip0_415_3307)">
<path d="M19.18 29.36C19.264 29.2588 19.3671 29.1751 19.4834 29.1137C19.5997 29.0524 19.7271 29.0146 19.858 29.0025C19.989 28.9904 20.1211 29.0043 20.2467 29.0433C20.3723 29.0824 20.489 29.1458 20.59 29.23L24.95 32.86V21C24.95 20.7348 25.0554 20.4805 25.2429 20.2929C25.4304 20.1054 25.6848 20 25.95 20C26.2152 20 26.4696 20.1054 26.6571 20.2929C26.8446 20.4805 26.95 20.7348 26.95 21V32.86L31.31 29.23C31.4111 29.146 31.5278 29.0827 31.6534 29.0437C31.779 29.0048 31.911 28.9909 32.0419 29.003C32.1729 29.0151 32.3001 29.0528 32.4165 29.1141C32.5328 29.1753 32.636 29.2589 32.72 29.36C32.804 29.4611 32.8674 29.5778 32.9063 29.7034C32.9453 29.829 32.9591 29.961 32.947 30.0919C32.935 30.2229 32.8972 30.3501 32.836 30.4665C32.7747 30.5828 32.6911 30.686 32.59 30.77L26.59 35.77L26.44 35.86L26.31 35.93C26.0783 36.0194 25.8217 36.0194 25.59 35.93L25.46 35.86L25.31 35.77L19.31 30.77C19.2087 30.6861 19.125 30.583 19.0637 30.4666C19.0023 30.3503 18.9645 30.223 18.9525 30.092C18.9404 29.961 18.9543 29.8289 18.9933 29.7033C19.0324 29.5777 19.0958 29.4611 19.18 29.36Z" fill="#2C1E40"/>
</g>
<defs>
<clipPath id="clip0_415_3307">
<rect width="24" height="24" fill="white" transform="matrix(1 0 0 -1 13.95 40)"/>
</clipPath>
</defs>
</svg>
