<svg width="219" height="118" viewBox="0 0 219 118" fill="none" xmlns="http://www.w3.org/2000/svg">
<g clip-path="url(#clip0_4557_155890)">
<path fill-rule="evenodd" clip-rule="evenodd" d="M0.773464 117.701C0.402796 117.969 -0.117341 117.866 -0.357934 117.477L-42.882 48.7315C-43.1215 48.3443 -42.9839 47.8353 -42.582 47.6216L15.9986 16.4689C16.2266 16.3476 16.3796 16.1212 16.4157 15.8655C17.6803 6.8983 25.3853 7.83974e-05 34.7015 7.83974e-05C41.1165 7.83974e-05 46.7676 3.27094 50.078 8.23592C50.3146 8.5908 50.7838 8.71206 51.1627 8.51616C53.6997 7.20441 56.5798 6.46355 59.6328 6.46355C69.8322 6.46355 78.1005 14.7318 78.1005 24.9312C78.1005 26.1219 77.9878 27.2862 77.7725 28.4142C77.7064 28.7605 77.8663 29.1121 78.1707 29.29C83.6519 32.493 87.3343 38.4395 87.3343 45.2462C87.3343 53.7452 81.5931 60.9033 73.7774 63.0538C73.3577 63.1693 73.0939 63.5904 73.1733 64.0184C73.377 65.117 73.4835 66.2497 73.4835 67.4074C73.4835 77.6068 65.2153 85.875 55.0159 85.875C52.3872 85.875 49.8869 85.3258 47.6232 84.3359C47.3612 84.2213 47.0574 84.2488 46.8256 84.4163L0.773464 117.701Z" fill="white" fill-opacity="0.87"/>
<path d="M40.0839 64.5431C25.3178 62.1251 24.601 48.8434 26.2178 41.7899C26.309 41.3921 26.7047 41.1471 27.1089 41.2028C34.5287 42.226 37.4141 38.3232 38.592 35.3248C38.8785 34.5956 40.1744 34.4495 40.7158 35.0159C43.21 37.6249 47.2564 37.0291 50.03 36.1543C50.7949 35.913 51.681 36.9083 51.3968 37.6584C49.1598 43.5633 52.2532 48.8964 54.1999 51.5683C54.5541 52.0545 54.2806 52.759 53.6936 52.8903C44.486 54.9503 41.9522 61.3665 40.9242 64.064C40.7952 64.4026 40.4415 64.6017 40.0839 64.5431Z" fill="#E4A8FE"/>
<path fill-rule="evenodd" clip-rule="evenodd" d="M199.144 27.373C199.088 27.8093 199.384 28.2172 199.818 28.2909C209.653 29.9626 219.258 35.4272 219.258 50.4962C219.258 60.5269 212.642 70.7315 203.771 76.2599C203.506 76.4249 203.358 76.7276 203.397 77.0372L208.443 116.964C208.502 117.434 208.136 117.85 207.661 117.85H129.051C128.599 117.85 128.24 117.472 128.264 117.021L130.475 74.6264C130.496 74.2227 130.207 73.8702 129.81 73.793C119.084 71.7044 111.334 60.2226 111.334 48.9207C111.334 37.1976 119.672 26.4584 131.022 25.1775C131.575 25.1151 131.926 24.5316 131.724 24.0132C130.946 22.0142 130.514 19.8881 130.514 17.7192C130.514 7.77479 139.596 0.698563 149.541 0.698563C155.652 0.698563 161.049 3.37104 164.302 7.73932C164.573 8.10411 165.091 8.19115 165.461 7.92638C169.894 4.75194 175.351 2.83699 180.657 2.83699C192.642 2.83699 199.321 12.6043 199.321 24.5886C199.321 25.532 199.261 26.4613 199.144 27.373Z" fill="white" fill-opacity="0.87"/>
<path d="M183.624 64.2937C183.624 54.6042 174.845 40.2857 165.156 40.2857C155.466 40.2857 147.15 54.6042 147.15 64.2937C147.15 73.9831 155.466 80.9146 165.156 80.9146C174.845 80.9146 183.624 73.9831 183.624 64.2937Z" fill="#E4A8FE"/>
<path d="M204.626 59.5719C206.239 55.4733 204.815 45.5956 200.706 43.9793C196.597 42.363 191.238 46.8061 189.625 50.9047C188.013 55.0033 189.92 61.9056 194.029 63.5219C198.138 65.1382 203.014 63.6705 204.626 59.5719Z" fill="#E4A8FE"/>
<path d="M127.854 51.3717C126.367 47.9693 127.39 39.8833 130.922 38.6433C134.453 37.4033 139.199 41.1691 140.685 44.5715C142.172 47.9739 140.665 53.6046 137.134 54.8446C133.603 56.0847 129.341 54.7741 127.854 51.3717Z" fill="#E4A8FE"/>
<path d="M187.317 26.4354C187.317 21.5906 185.47 16.7398 180.854 15.8165C175.775 14.8007 170.696 20.2056 170.696 25.0503C170.696 29.895 173.08 35.6692 177.16 35.6692C182.239 35.6692 187.317 31.2801 187.317 26.4354Z" fill="#E4A8FE"/>
<path d="M159.615 25.7477C159.615 21.2691 157.974 16.7847 153.87 15.9311C149.356 14.9921 144.841 19.9886 144.841 24.4673C144.841 28.946 149.423 34.2839 153.049 34.2839C157.563 34.2839 159.615 30.2264 159.615 25.7477Z" fill="#E4A8FE"/>
</g>
<defs>
<clipPath id="clip0_4557_155890">
<rect width="219" height="118" fill="white"/>
</clipPath>
</defs>
</svg>
